<?xml version="1.0" encoding="UTF-8"?>
<svg id="Layer_1" data-name="Layer 1" xmlns="http://www.w3.org/2000/svg" viewBox="0 0 171.75 120.75">
  <defs>
    <style>
      .cls-1 {
        fill: #13bac7;
      }

      .cls-2 {
        fill: #007c90;
      }

      .cls-3 {
        fill: #c3c3c3;
      }

      .cls-4 {
        fill: #e5e7ea;
      }

      .cls-5 {
        fill: none;
      }

      .cls-6 {
        fill: #384550;
      }

      .cls-7 {
        fill: #f89f3f;
      }

      .cls-8 {
        fill: #7a8795;
      }

      .cls-9 {
        fill: none;
      }

      /* Non-scaling stroke for lines/edges */
      .ns {
        vector-effect: non-scaling-stroke;
      }

      /* Detail preservation for tiny features */
      .detail {
        vector-effect: non-scaling-stroke;
        stroke: #2b3a44;
        stroke-width: 1;
      }
    </style>
  </defs>

  <!-- Apply horizontal flip transformation -->
  <g transform="scale(-1, 1) translate(-171.75, 0)">
    <path class="cls-4" d="M105.29,52.176v41.741c-3.723-.559-6.729-.56-10.454,0v-41.741M98.543,65.245c2.922,2.041,5.455-2.418,2.558-3.31-2.771-.852-4.509,1.946-2.558,3.31ZM98.543,75.68c2.922,2.041,5.455-2.418,2.558-3.31-2.771-.852-4.509,1.946-2.558,3.31ZM98.543,86.115c2.922,2.041,5.455-2.418,2.558-3.31-2.771-.852-4.509,1.946-2.558,3.31Z"/>
    <path class="cls-4" d="M124.332,64.847h-14.935c-1.625,0-1.625,7.454,0,7.454h14.935c1.625,0,1.625-7.454,0-7.454Z"/>
    <rect id="suction" class="cls-7 ns" x="163.536" y="63.356" width="3.734" height="11.926" stroke="#e08a2f" stroke-width="0.5"/>
    <path class="cls-7 ns" d="M159.802,63.356v11.926c0,.149,2.987,.149,2.987,0v-11.926c0-.149-2.452.099-2.987,0Z" stroke="#e08a2f" stroke-width="0.5"/>
    <rect class="cls-3" x="88.283" y="52.176" width="17.007" height="41.741"/>
    <rect class="cls-3" x="6.804" y="52.176" width="17.007" height="41.741"/>
    
    <!-- Bolt holes/vents on right side - with detail class -->
    <path class="cls-6 detail" d="M101.101,61.935c-2.771-.852-4.509,1.946-2.558,3.31,2.922,2.041,5.455-2.418,2.558-3.31Z"/>
    <path class="cls-6 detail" d="M101.101,72.37c-2.771-.852-4.509,1.946-2.558,3.31,2.922,2.041,5.455-2.418,2.558-3.31Z"/>
    <path class="cls-6 detail" d="M101.101,82.805c-2.771-.852-4.509,1.946-2.558,3.31,2.922,2.041,5.455-2.418,2.558-3.31Z"/>
    
    <path class="cls-1" d="M147.911,89.864c.905-7.002.929-33.397-.101-40.25-1.149-7.647-10.876-10.15-16.869-6.1-2.113,1.428-2.994,3.584-3.238,6.06-1.262,12.845.768,27.752.165,40.812.491,7.583,14.444,8.426,17.82,3.97"/>
    <path class="cls-1" d="M130.679,15.653v21.988c0,.456,1.104,1.039,1.793,1.083,2.276.145,5.652-1.206,9.003-.677.702.111,4.886,2.888,4.886.339V15.653h-15.682Z"/>
    <rect class="cls-7" x="130.679" y="5.963" width="15.682" height="3.727"/>
    <path id="discharge" class="cls-7" d="M130.679,10.435c-.104.107-.149,2.981,0,2.981h15.682c.149,0,.149-2.981,0-2.981-2.211,0-15.137-.563-15.682,0Z"/>
    <path class="cls-6" d="M171.75,80.5c-5.763-1.058-2.996,2.212-3.729,2.988-.308.326-8.663.327-8.97,0-.214-.228.147-2.271,0-2.989-9.871,3.607-1.98,12.718-11.247,18.958-7.515,5.06-17.845,3.07-23.867-3.115-2.077-2.317-.436-8.729-4.055-9.183-7.353-.923-4.824.193-5.671,4.106-.603,2.786-4.042,7.123-7.054,7.123h-19.789c.204,1.197-.419,3.474.122,4.356.312.509,10.108,5.334,10.706,5.334h10.828v12.671H14.188l-.004-12.675c3.694-.146,7.349.495,10.998-.575,3.201-.939,10.668-4.914,9.168-9.111H7.841c-1.281,0-5.411-2.99-7.139-3.446l.002-44.576c5.763-2.36,9.759-4.44,16.471-3.409v-14.907h65.34c1.831,0,5.087,4.494,6.156,5.237,2.193,1.522,8.668,3.852,9.159,6.321.177.89-.2,3.156-.011,3.354.386.405,8.243.183,11.072,1.245,4.548,1.708,2.998,3.945,10.223,3.219,5.117-.514,2.562-1.776,3.676-5.261.432-1.352,4.155-5.169,4.155-5.543V14.162c-.698-.129-2.774.213-2.993.004-.324-.309-.321-8.642.002-8.953,1.024-.986,4.995,2.665,3.738-4.468h21.655c-1.13,6.704,2.165,3.687,2.994,4.468.31.292.181,7.597.009,8.518-.177.946-3.002.213-3.002.431v27.951c0,.215,1.976,2.253,2.403,3.564,1.415,4.346,1.519,11.546,7.3,12.461.145-.717-.214-2.762,0-2.988.308-.326,8.662-.325,8.97,0,.734.776-2.034,4.046,3.729,2.988v22.361h0ZM130.679,9.69h15.682v-3.727h-15.682v3.727ZM130.679,13.417h15.682c.149,0,.149-2.981,0-2.981-2.211,0-15.137-.563-15.682,0-.104.107-.149,2.981,0,2.981ZM130.679,37.641c0,.456,1.104,1.039,1.793,1.083,2.276.145,5.652-1.206,9.003-.677.702.111,4.886,2.888,4.886.339V15.653h-15.682v21.988ZM24.642,52.176c-.014,2.479.007,4.975,0,7.454,0,.497.003.994,0,1.491-.012,2.231-.009,4.477,0,6.708,0,.248,0,.497,0,.745.011,2.479-.02,4.975,0,7.454.006.745-.008,1.491,0,2.236.026,2.478-.034,4.976,0,7.454.003.248-.004.497,0,.745.043,2.477-.03,4.977,0,7.454h66.46c.03-2.477-.043-4.977,0-7.454.004-.248-.003-.497,0-.745.034-2.478-.026-4.975,0-7.454.008-.745-.006-1.491,0-2.236.02-2.478.002-4.975,0-7.454,0-.248.002-.497,0-.745-.015-2.231.021-4.477,0-6.708-.005-.497.006-.994,0-1.491-.029-2.477.063-4.978,0-7.454-.025-.991.049-1.992,0-2.981-.073-1.458.273-2.839-.229-4.282-.286-.823-10.636-7.644-11.346-7.644H24.642c-.026,3.965.035,7.961,0,11.926-.009.994.006,1.988,0,2.981ZM147.911,89.864c.905-7.002.929-33.397-.101-40.25-1.149-7.647-10.876-10.15-16.869-6.1-2.113,1.428-2.994,3.584-3.238,6.06-1.262,12.845.768,27.752.165,40.812.491,7.583,14.444,8.426,17.82,3.97M100.045,52.176h-5.21v41.741h10.454v-41.741h-5.245,0ZM20.162,93.917v-41.741h-9.708v41.741M163.536,75.282h3.734v-11.926h-3.734v11.926ZM159.802,75.282c0,.149,2.987,.149,2.987,0v-11.926c0-.149-2.452.099-2.987,0v11.926Z"/>
    <path class="cls-2" d="M91.102,49.194c-.073-1.458.273-2.839-.229-4.282-.286-.823-10.636-7.644-11.346-7.644H24.642c-.026,3.965.035,7.961,0,11.926,0,0,66.46,0,66.46,0Z"/>
    <path class="cls-2" d="M24.642,52.176c-.014,2.479.007,4.975,0,7.454h66.46c-.029-2.477.063-4.978,0-7.454H24.642Z"/>
    <path class="cls-2" d="M24.642,68.574c.011,2.479-.02,4.975,0,7.454h66.46c.02-2.478.002-4.975,0-7.454H24.642Z"/>
    <path class="cls-2" d="M24.642,78.264c.026,2.478-.034,4.976,0,7.454h66.46c.034-2.478-.026-4.975,0-7.454H24.642Z"/>
    <path class="cls-2" d="M24.642,86.463c.043,2.477-.03,4.977,0,7.454h66.46c.03-2.477-.043-4.977,0-7.454H24.642Z"/>
    <path class="cls-2" d="M24.642,61.12c-.012,2.231-.009,4.477,0,6.708h66.46c-.015-2.231.021-4.477,0-6.708,0,0-66.46,0-66.46,0Z"/>
    <path class="cls-4" d="M10.454,93.917v-41.741c3.359.36,6.369.802,9.708,0v41.741M14.161,63.008c2.922,2.041,5.455-2.418,2.558-3.31-2.771-.852-4.509,1.946-2.558,3.31ZM14.161,73.444c2.922,2.041,5.455-2.418,2.558-3.31-2.771-.852-4.509,1.946-2.558,3.31ZM14.161,83.879c2.922,2.041,5.455-2.418,2.558-3.31-2.771-.852-4.509,1.946-2.558,3.31Z"/>
    <path class="cls-8" d="M24.642,49.194c-.009.994.006,1.988,0,2.981h66.46c-.025-.991.049-1.992,0-2.981H24.642Z"/>
    <path class="cls-8" d="M24.642,76.028c.006.745-.008,1.491,0,2.236h66.46c.008-.745-.006-1.491,0-2.236H24.642Z"/>
    <path class="cls-8" d="M24.642,59.63c0,.497.003.994,0,1.491h66.46c-.005-.497.006-.994,0-1.491H24.642Z"/>
    <path class="cls-8" d="M24.642,67.829c0,.248,0,.497,0,.745h66.46c0-.248.002-.497,0-.745H24.642Z"/>
    <path class="cls-8" d="M24.642,85.718c.003.248-.004.497,0,.745h66.46c.004-.248-.003-.497,0-.745H24.642Z"/>
    
    <!-- Bolt holes/vents on left side - with detail class -->
    <path class="cls-6 detail" d="M16.719,59.699c-2.771-.852-4.509,1.946-2.558,3.31,2.922,2.041,5.455-2.418,2.558-3.31Z"/>
    <path class="cls-6 detail" d="M16.719,70.134c-2.771-.852-4.509,1.946-2.558,3.31,2.922,2.041,5.455-2.418,2.558-3.31Z"/>
    <path class="cls-6 detail" d="M16.719,80.569c-2.771-.852-4.509,1.946-2.558,3.310,2.922,2.041,5.455-2.418,2.558-3.31Z"/>
    
    <!-- Arrow detail with non-scaling stroke -->
    <polyline class="cls-6 ns" points="150.158 75.314 154.469 81.061 158.61 75.191" fill="none" stroke="#384550" stroke-width="1.5"/>
    
    <path class="cls-1" d="M149.988,63.698c.057,3.872.114,7.744.17,11.616.115.173,1.536,2.234,4.141,2.257,2.754.025,4.231-2.252,4.311-2.381-.057-3.872-.114-7.744-.17-11.616-.698-1.662-2.289-2.771-4.055-2.827-1.913-.061-3.687,1.124-4.396,2.951h-.001Z"/>
    <rect class="cls-3" x="108.544" y="64.847" width="17.007" height="8.534"/>
    
    <!-- Control points with detail class -->
    <circle id="cp2" class="cls-5 detail" cx="138.52" cy="7.826" r="1.503" stroke="#999" stroke-width="1"/>
    <circle id="cp1" class="cls-5 detail" cx="165.381" cy="69.381" r="1.503" stroke="#999" stroke-width="1"/>
  </g>
</svg>
