<?xml version="1.0" encoding="UTF-8"?>
<svg id="Layer_1" data-name="Layer 1" xmlns="http://www.w3.org/2000/svg" viewBox="0 0 171.75 120.75">
  <defs>
    <style>
      .cls-1 {
        fill: #13bac7;
      }

      .cls-2 {
        fill: #007c90;
      }

      .cls-3 {
        fill: #c3c3c3;
      }

      .cls-4 {
        fill: #e5e7ea;
      }

      .cls-5 {
        fill: none;
      }

      .cls-6 {
        fill: #384550;
      }

      .cls-7 {
        fill: #f89f3f;
      }

      .cls-8 {
        fill: #7a8795;
      }

      .cls-9 {
        fill: #fefefe;
      }
    </style>
  </defs>
  <path class="cls-9" d="M0,58.138c5.763,1.058,2.995-2.212,3.729-2.988.308-.325,8.662-.326,8.97,0,.214.226-.145,2.271,0,2.988,5.781-.915,5.885-8.115,7.3-12.461.427-1.311,2.403-3.349,2.403-3.564V14.162c0-.218-2.825.515-3.002-.431-.172-.921-.301-8.226.009-8.518.829-.781,4.124,2.236,2.994-4.468h21.655c-1.257,7.133,2.714,3.482,3.738,4.468.323.311.326,8.644.002,8.953-.219.209-2.295-.133-2.993-.004v26.461c0,.374,3.723,4.191,4.155,5.543,1.114,3.485-1.441,4.747,3.676,5.261,7.225.726,5.675-1.511,10.223-3.219,2.829-1.062,10.686-.84,11.072-1.245.189-.198-.188-2.464-.011-3.354.491-2.469,6.966-4.799,9.159-6.321,1.069-.743,4.325-5.237,6.156-5.237h65.34v14.907c6.712-1.031,10.708,1.049,16.471,3.409l.002,44.576c-1.728.456-5.858,3.446-7.139,3.446h-26.509c-1.5,4.197,5.967,8.172,9.168,9.111,3.649,1.07,7.304.429,10.998.575l-.004,12.675h14.188s0-120.75,0-120.75H0s0,58.139,0,58.139H0Z"/>
  <path class="cls-4" d="M76.914,52.176v41.741c-3.725-.56-6.731-.559-10.454,0v-41.741M70.649,61.935c-2.897.892-.364,5.351,2.558,3.31,1.951-1.364.213-4.162-2.558-3.31ZM70.649,72.37c-2.897.892-.364,5.351,2.558,3.31,1.951-1.364.213-4.162-2.558-3.31ZM70.649,82.805c-2.897.892-.364,5.351,2.558,3.31,1.951-1.364.213-4.162-2.558-3.31Z"/>
  <path class="cls-4" d="M47.418,72.301h14.935c1.625,0,1.625-7.454,0-7.454h-14.935c-1.625,0-1.625,7.454,0,7.454Z"/>
  <rect id="suction" class="cls-7" x="4.48" y="63.356" width="3.734" height="11.926" transform="translate(12.694 138.638) rotate(-180)"/>
  <path class="cls-7" d="M8.961,63.356v11.926c0,.149,2.987.149,2.987,0v-11.926c-.535.099-2.987-.149-2.987,0Z"/>
  <rect class="cls-3" x="66.46" y="52.176" width="17.007" height="41.741" transform="translate(149.927 146.093) rotate(-180)"/>
  <rect class="cls-3" x="147.939" y="52.176" width="17.007" height="41.741" transform="translate(312.885 146.093) rotate(-180)"/>
  <path class="cls-6" d="M73.207,65.245c1.951-1.364.213-4.162-2.558-3.31-2.897.892-.364,5.351,2.558,3.31Z"/>
  <path class="cls-6" d="M73.207,75.68c1.951-1.364.213-4.162-2.558-3.31-2.897.892-.364,5.351,2.558,3.31Z"/>
  <path class="cls-6" d="M73.207,86.115c1.951-1.364.213-4.162-2.558-3.31-2.897.892-.364,5.351,2.558,3.31Z"/>
  <path class="cls-1" d="M26.062,94.356c3.376,4.456,17.329,3.613,17.82-3.97-.603-13.06,1.427-27.967.165-40.812-.244-2.476-1.125-4.632-3.238-6.06-5.993-4.05-15.72-1.547-16.869,6.1-1.03,6.853-1.006,33.248-.101,40.25"/>
  <path class="cls-1" d="M25.389,15.653v22.733c0,2.549,4.184-.228,4.886-.339,3.351-.529,6.727.822,9.003.677.689-.044,1.793-.627,1.793-1.083V15.653s-15.682,0-15.682,0Z"/>
  <rect class="cls-7" x="25.389" y="5.963" width="15.682" height="3.727" transform="translate(66.46 15.653) rotate(-180)"/>
  <path id="discharge" class="cls-7" d="M25.389,10.435c-.149,0-.149,2.981,0,2.981h15.682c.149,0,.104-2.874,0-2.981-.545-.563-13.471,0-15.682,0Z"/>
  <path class="cls-6" d="M0,80.499v-22.361c5.763,1.058,2.995-2.212,3.729-2.988.308-.325,8.662-.326,8.97,0,.214.226-.145,2.271,0,2.988,5.781-.915,5.885-8.115,7.3-12.461.427-1.311,2.403-3.349,2.403-3.564V14.162c0-.218-2.825.515-3.002-.431-.172-.921-.301-8.226.009-8.518.829-.781,4.124,2.236,2.994-4.468h21.655c-1.257,7.133,2.714,3.482,3.738,4.468.323.311.326,8.644.002,8.953-.219.209-2.295-.133-2.993-.004v26.46c0,.374,3.723,4.191,4.155,5.543,1.114,3.485-1.441,4.747,3.676,5.261,7.225.726,5.675-1.511,10.223-3.219,2.829-1.062,10.686-.84,11.072-1.245.189-.198-.188-2.464-.011-3.354.491-2.469,6.966-4.799,9.159-6.321,1.069-.743,4.325-5.237,6.156-5.237h65.34v14.907c6.712-1.031,10.708,1.049,16.471,3.409l.002,44.576c-1.728.456-5.858,3.446-7.139,3.446h-26.509c-1.5,4.197,5.967,8.172,9.168,9.111,3.649,1.07,7.304.429,10.998.575l-.004,12.675H62.726v-12.671h10.828c.598,0,10.394-4.825,10.706-5.334.541-.882-.082-3.159.122-4.356h-19.789c-3.012,0-6.451-4.337-7.054-7.123-.847-3.913,1.682-5.029-5.671-4.106-3.619.454-1.978,6.866-4.055,9.183-6.022,6.185-16.352,8.175-23.867,3.115-9.267-6.24-1.376-15.351-11.247-18.958-.147.718.214,2.761,0,2.989-.307.327-8.662.326-8.97,0-.733-.776,2.034-4.046-3.729-2.988H0ZM41.071,5.963h-15.682s0,3.727,0,3.727h15.682s0-3.727,0-3.727ZM41.071,10.436c-.545-.563-13.471,0-15.682,0-.149,0-.149,2.981,0,2.981h15.682c.149,0,.104-2.874,0-2.981ZM41.071,15.653h-15.682s0,22.733,0,22.733c0,2.549,4.184-.228,4.886-.339,3.351-.529,6.727.822,9.003.677.689-.044,1.793-.627,1.793-1.083V15.653ZM147.108,49.195c-.035-3.965.026-7.961,0-11.926h-54.885c-.71,0-11.06,6.821-11.346,7.644-.502,1.443-.156,2.824-.229,4.282-.049.989.025,1.99,0,2.981-.063,2.476.029,4.977,0,7.454-.006.497.005.994,0,1.491-.021,2.231.015,4.477,0,6.708-.002.248,0,.497,0,.745-.002,2.479-.02,4.976,0,7.454.006.745-.008,1.491,0,2.236.026,2.479-.034,4.976,0,7.454.003.248-.004.497,0,.745.043,2.477-.03,4.977,0,7.454h66.46c.03-2.477-.043-4.977,0-7.454.004-.248-.003-.497,0-.745.034-2.478-.026-4.976,0-7.454.008-.745-.006-1.491,0-2.236.02-2.479-.011-4.975,0-7.454,0-.248,0-.497,0-.745.009-2.231.012-4.477,0-6.708-.003-.497,0-.994,0-1.491-.007-2.479.014-4.975,0-7.454-.006-.993.009-1.987,0-2.981ZM26.062,94.356c3.376,4.456,17.329,3.613,17.82-3.97-.603-13.06,1.427-27.967.165-40.812-.244-2.476-1.125-4.632-3.238-6.06-5.993-4.05-15.72-1.547-16.869,6.1-1.03,6.853-1.006,33.248-.101,40.25M71.706,52.176h-5.245s0,41.741,0,41.741h10.454s0-41.741,0-41.741h-5.21s0,0,0,0ZM161.296,93.917v-41.741s-9.708,0-9.708,0v41.741M8.214,63.356h-3.734s0,11.926,0,11.926h3.734s0-11.926,0-11.926ZM11.948,63.356c-.535.099-2.987-.149-2.987,0v11.926c0,.149,2.987.149,2.987,0v-11.926Z"/>
  <path class="cls-2" d="M147.108,49.194c-.035-3.965.026-7.961,0-11.926h-54.885c-.71,0-11.06,6.821-11.346,7.644-.502,1.443-.156,2.824-.229,4.282,0,0,66.46,0,66.46,0Z"/>
  <path class="cls-2" d="M80.648,52.176c-.063,2.476.029,4.977,0,7.454h66.46c-.007-2.479.014-4.975,0-7.454h-66.46Z"/>
  <path class="cls-2" d="M80.648,68.574c-.002,2.479-.02,4.976,0,7.454h66.46c.02-2.479-.011-4.975,0-7.454h-66.46Z"/>
  <path class="cls-2" d="M80.648,78.264c.026,2.479-.034,4.976,0,7.454h66.46c.034-2.478-.026-4.976,0-7.454h-66.46Z"/>
  <path class="cls-2" d="M80.648,86.463c.043,2.477-.03,4.977,0,7.454h66.46c.03-2.477-.043-4.977,0-7.454h-66.46Z"/>
  <path class="cls-2" d="M80.648,61.12c-.021,2.231.015,4.477,0,6.708h66.46c.009-2.231.012-4.477,0-6.708,0,0-66.46,0-66.46,0Z"/>
  <path class="cls-4" d="M151.588,93.917v-41.741c3.339.802,6.349.36,9.708,0v41.741M155.031,59.698c-2.897.892-.364,5.351,2.558,3.31,1.951-1.364.213-4.162-2.558-3.31ZM155.031,70.134c-2.897.892-.364,5.351,2.558,3.31,1.951-1.364.213-4.162-2.558-3.31ZM155.031,80.569c-2.897.892-.364,5.351,2.558,3.31,1.951-1.364.213-4.162-2.558-3.31Z"/>
  <path class="cls-8" d="M80.648,49.194c-.049.989.025,1.99,0,2.981h66.46c-.006-.993.009-1.987,0-2.981h-66.46Z"/>
  <path class="cls-8" d="M80.648,76.028c.006.745-.008,1.491,0,2.236h66.46c.008-.745-.006-1.491,0-2.236h-66.46Z"/>
  <path class="cls-8" d="M80.648,59.63c-.006.497.005.994,0,1.491h66.46c-.003-.497,0-.994,0-1.491h-66.46Z"/>
  <path class="cls-8" d="M80.648,67.829c-.002.248,0,.497,0,.745h66.46c0-.248,0-.497,0-.745h-66.46Z"/>
  <path class="cls-8" d="M80.648,85.718c.003.248-.004.497,0,.745h66.46c.004-.248-.003-.497,0-.745h-66.46Z"/>
  <path class="cls-6" d="M157.589,63.009c1.951-1.364.213-4.162-2.558-3.31-2.897.892-.364,5.351,2.558,3.31Z"/>
  <path class="cls-6" d="M157.589,73.444c1.951-1.364.213-4.162-2.558-3.31-2.897.892-.364,5.351,2.558,3.31Z"/>
  <path class="cls-6" d="M157.589,83.879c1.951-1.364.213-4.162-2.558-3.31-2.897.892-.364,5.351,2.558,3.31Z"/>
  <polyline class="cls-6" points="13.14 75.191 17.281 81.061 21.592 75.314"/>
  <path class="cls-1" d="M21.761,63.698c-.709-1.827-2.483-3.012-4.396-2.951-1.766.056-3.357,1.165-4.055,2.827-.056,3.872-.113,7.744-.17,11.616.08.129,1.557,2.406,4.311,2.381,2.605-.023,4.026-2.084,4.141-2.257.056-3.872.113-7.744.17-11.616h-.001Z"/>
  <rect class="cls-3" x="46.199" y="64.847" width="17.007" height="8.534" transform="translate(109.405 138.228) rotate(-180)"/>
  <circle id="cp2" class="cls-5" cx="33.23" cy="7.826" r="1.503"/>
  <circle id="cp1" class="cls-5" cx="6.369" cy="69.381" r="1.503"/>
</svg>