<?xml version="1.0" encoding="utf-8"?>
<!-- Generator: Adobe Adobe Illustrator 29.2.0, SVG Export Plug-In . SVG Version: 6.00 Build 0)  -->
<svg version="1.1" id="Layer_1" xmlns="http://www.w3.org/2000/svg" x="0px" y="0px" viewBox="0 0 171.8 120.8"
	 style="enable-background:new 0 0 171.8 120.8;" xml:space="preserve">
<style type="text/css">
	.st0{fill:#384550;}
	.st1{fill:#007C90;}
	.st2{fill:#7A8795;}
	.st3{fill:#384550;stroke:#2B3A44;}
	.st4{fill:#13BAC7;}
	.st5{fill:#C3C3C3;}
	.st6{fill:#F89F3F;}
</style>
<g id="artwork" transform="scale(-1, 1) translate(-171.75, 0)">
	<g>
		<path class="st0" d="M171.8,80.5c-5.8-1.1-3,2.2-3.7,3c-0.3,0.3-8.7,0.3-9,0c-0.2-0.2,0.1-2.3,0-3c-9.9,3.6-2,12.7-11.2,19
			c-7.5,5.1-17.8,3.1-23.9-3.1c-2.1-2.3-0.4-8.7-4.1-9.2c-7.4-0.9-4.8,0.2-5.7,4.1c-0.6,2.8-4,7.1-7.1,7.1H87.4
			c0.2,1.2-0.4,3.5,0.1,4.4c0.3,0.5,10.1,5.3,10.7,5.3H109v12.7H14.2v-12.7c3.7-0.1,7.3,0.5,11-0.6c3.2-0.9,10.7-4.9,9.2-9.1H7.8
			c-1.3,0-5.4-3-7.1-3.4V50.4C6.5,48,10.5,46,17.2,47V32.1h65.3c1.8,0,5.1,4.5,6.2,5.2c2.2,1.5,8.7,3.9,9.2,6.3
			c0.2,0.9-0.2,3.2,0,3.4c0.4,0.4,8.2,0.2,11.1,1.2c4.5,1.7,3,3.9,10.2,3.2c5.1-0.5,2.6-1.8,3.7-5.3c0.4-1.4,4.2-5.2,4.2-5.5V14.2
			c-0.7-0.1-2.8,0.2-3,0c-0.3-0.3-0.3-8.6,0-9c1-1,5,2.7,3.7-4.5h21.7c-1.1,6.7,2.2,3.7,3,4.5c0.3,0.3,0.2,7.6,0,8.5
			c-0.2,0.9-3,0.2-3,0.4v28c0,0.2,2,2.3,2.4,3.6c1.4,4.3,1.5,11.5,7.3,12.5c0.1-0.7-0.2-2.8,0-3c0.3-0.3,8.7-0.3,9,0
			c0.7,0.8-2,4,3.7,3L171.8,80.5L171.8,80.5L171.8,80.5z M130.7,9.7h15.7V6h-15.7V9.7z M130.7,13.4h15.7c0.1,0,0.1-3,0-3
			c-2.2,0-15.1-0.6-15.7,0C130.6,10.5,130.5,13.4,130.7,13.4z M130.7,37.6c0,0.5,1.1,1,1.8,1.1c2.3,0.1,5.7-1.2,9-0.7
			c0.7,0.1,4.9,2.9,4.9,0.3V15.7h-15.7V37.6z M24.6,52.2c0,2.5,0,5,0,7.5c0,0.5,0,1,0,1.5c0,2.2,0,4.5,0,6.7c0,0.2,0,0.5,0,0.7
			c0,2.5,0,5,0,7.5c0,0.7,0,1.5,0,2.2c0,2.5,0,5,0,7.5c0,0.2,0,0.5,0,0.7c0,2.5,0,5,0,7.5h66.5c0-2.5,0-5,0-7.5c0-0.2,0-0.5,0-0.7
			c0-2.5,0-5,0-7.5c0-0.7,0-1.5,0-2.2c0-2.5,0-5,0-7.5c0-0.2,0-0.5,0-0.7c0-2.2,0-4.5,0-6.7c0-0.5,0-1,0-1.5c0-2.5,0.1-5,0-7.5
			c0-1,0-2,0-3c-0.1-1.5,0.3-2.8-0.2-4.3c-0.3-0.8-10.6-7.6-11.3-7.6h-55c0,4,0,8,0,11.9C24.6,50.2,24.6,51.2,24.6,52.2z
			 M147.9,89.9c0.9-7,0.9-33.4-0.1-40.2c-1.1-7.6-10.9-10.2-16.9-6.1c-2.1,1.4-3,3.6-3.2,6.1c-1.3,12.8,0.8,27.8,0.2,40.8
			c0.5,7.6,14.4,8.4,17.8,4 M100,52.2h-5.2v41.7h10.5V52.2H100L100,52.2L100,52.2z M20.2,93.9V52.2h-9.7v41.7 M163.5,75.3h3.7V63.4
			h-3.7V75.3z M159.8,75.3c0,0.1,3,0.1,3,0V63.4c0-0.1-2.5,0.1-3,0V75.3z"/>
	</g>
	<g id="motorblue">
		<g>
			<g>
				<path class="st1" d="M79.6,37.3c0.7,0,11,6.8,11.3,7.6c0.5,1.5,0.1,2.8,0.2,4.3H24.6c0-3.9,0-7.9,0-11.9H79.6z"/>
				<path class="st1" d="M91.1,59.7H24.6c0-2.5,0-5,0-7.5h66.5C91.2,54.7,91.1,57.2,91.1,59.7z"/>
				<path class="st1" d="M91.1,76.1H24.6c0-2.5,0-5,0-7.5h66.5C91.1,71.1,91.1,73.6,91.1,76.1z"/>
				<path class="st1" d="M91.1,85.8H24.6c0-2.5,0-5,0-7.5h66.5C91.1,80.8,91.1,83.3,91.1,85.8z"/>
				<path class="st1" d="M91.1,94H24.6c0-2.5,0-5,0-7.5h66.5C91.1,89,91.1,91.5,91.1,94z"/>
				<path class="st1" d="M91.1,67.8H24.6c0-2.2,0-4.5,0-6.7h66.5C91.1,63.3,91.1,65.6,91.1,67.8z"/>
			</g>
		</g>
	</g>
	<g id="motorfins">
		<g>
			<g>
				<path class="st2" d="M91.1,49.2c0,1,0,2,0,3H24.6c0-1,0-2,0-3H91.1z"/>
				<path class="st2" d="M91.1,78.2H24.6c0-0.7,0-1.5,0-2.2h66.5C91.1,76.7,91.1,77.5,91.1,78.2z"/>
				<path class="st2" d="M91.1,61.1H24.6c0-0.5,0-1,0-1.5h66.5C91.1,60.1,91.1,60.6,91.1,61.1z"/>
				<path class="st2" d="M91.1,68.5H24.6c0-0.2,0-0.5,0-0.7h66.5C91.1,68,91.1,68.3,91.1,68.5z"/>
				<path class="st2" d="M91.1,86.4H24.6c0-0.2,0-0.5,0-0.7h66.5C91.1,85.9,91.1,86.2,91.1,86.4z"/>
			</g>
		</g>
	</g>
	<g id="sidemotorbolts">
		<g>
			<g>
				<path class="st3" d="M101.1,61.9c2.9,0.9,0.4,5.4-2.6,3.3C96.6,63.8,98.3,61,101.1,61.9z"/>
				<path class="st3" d="M101.1,72.4c2.9,0.9,0.4,5.3-2.6,3.3C96.6,74.3,98.3,71.5,101.1,72.4z"/>
				<path class="st3" d="M101.1,82.8c2.9,0.9,0.4,5.4-2.6,3.3C96.6,84.7,98.3,81.9,101.1,82.8z"/>
				<path class="st3" d="M14.1,63c-1.9-1.4-0.2-4.2,2.6-3.3C19.6,60.6,17.1,65.1,14.1,63z"/>
				<path class="st3" d="M16.7,70.1c2.9,0.9,0.4,5.4-2.6,3.3C12.2,72,13.9,69.2,16.7,70.1z"/>
				<path class="st3" d="M16.7,80.6c2.9,0.9,0.4,5.3-2.6,3.3C12.2,82.5,13.9,79.7,16.7,80.6z"/>
			</g>
		</g>
	</g>
	<g id="pumphead">
		<g>
			<g>
				<path class="st4" d="M127.7,49.7c0.2-2.5,1.1-4.7,3.2-6.1c6-4.1,15.8-1.5,16.9,6.1c1,6.8,1,33.2,0.1,40.2l-2.2,4.6
					c-3.4,4.4-17.3,3.6-17.8-4C128.5,77.5,126.4,62.5,127.7,49.7z"/>
				<path class="st4" d="M141.5,38.1c-3.3-0.5-6.7,0.8-9,0.7c-0.7-0.1-1.8-0.6-1.8-1.1v-22h15.7v22.7
					C146.4,41,142.2,38.2,141.5,38.1z"/>
				<path class="st4" d="M154.3,60.8c1.8,0,3.4,1.1,4.1,2.8c0.1,3.9,0.1,7.7,0.2,11.6c-0.1,0.1-1.5,2.4-4.3,2.4
					c-2.6-0.1-4-2.1-4.1-2.3c-0.1-3.9-0.1-7.7-0.2-11.6C150.7,61.9,152.5,60.7,154.3,60.8z"/>
			</g>
		</g>
	</g>
	<g id="endMotorBoltMount">
		<g>
			<g>
				<path class="st5" d="M20.2,52.2v41.7h-9.7V52.2C13.9,52.6,16.9,53,20.2,52.2z M14.2,83.9c2.9,2,5.5-2.4,2.6-3.3
					C13.9,79.7,12.2,82.5,14.2,83.9z M14.2,73.4c2.9,2,5.5-2.4,2.6-3.3C13.9,69.3,12.2,72.1,14.2,73.4z M14.2,63
					c2.9,2,5.5-2.4,2.6-3.3C13.9,58.8,12.2,61.6,14.2,63z"/>
				<path class="st5" d="M105.3,93.9c-3.7-0.6-6.7-0.6-10.5,0V52.2h10.5V93.9z M101.1,61.9c-2.8-0.8-4.5,2-2.6,3.3
					C101.4,67.2,104,62.8,101.1,61.9z M101.1,72.4c-2.8-0.9-4.5,1.9-2.6,3.3C101.4,77.7,104,73.3,101.1,72.4z M101.1,82.8
					c-2.8-0.8-4.5,2-2.6,3.3C101.4,88.1,104,83.7,101.1,82.8z"/>
			</g>
		</g>
	</g>
	<rect id="shaft" x="108.5" y="73.4" class="st5" width="17" height="-8.5"/>
	<g id="suctionAndDischarge">
		<g>
			<g>
				<path class="st6" d="M162.8,63.4v11.9c0,0.1-3,0.1-3,0V63.4C160.3,63.5,162.8,63.2,162.8,63.4z"/>
				<rect x="163.5" y="63.4" class="st6" width="3.7" height="11.9"/>
				<path class="st6" d="M130.7,10.4c0.5-0.5,13.5,0,15.7,0c0.1,0,0.1,3,0,3h-15.7C130.6,13.4,130.6,10.5,130.7,10.4z"/>
				<rect x="130.7" y="6" class="st6" width="15.7" height="3.7"/>
			</g>
		</g>
	</g>
</g>
</svg>
