<?xml version="1.0" encoding="utf-8"?>
<!-- Generator: Adobe Adobe Illustrator 29.2.0, SVG Export Plug-In . SVG Version: 6.00 Build 0)  -->
<svg version="1.1" id="Layer_1" xmlns:xlink="http://www.w3.org/1999/xlink"
	 xmlns="http://www.w3.org/2000/svg" x="0px" y="0px" viewBox="0 0 800 800"
	 style="enable-background:new 0 0 800 800;" xml:space="preserve">
<style type="text/css">
	.st0{fill:#1C1C1C;}
	.st1{fill:#9BA2A7;}
	.st2{fill:#F9A03F;}
	.st3{fill:#384550;}
	.st4{fill:#E6E9EE;}
	.st5{fill:#2B3B4E;}
	.st6{fill:#ACB3BA;}
	.st7{fill:#FF7058;}
	.st8{fill:#BE872D;stroke:#55FF00;stroke-miterlimit:10;}
	.st9{fill:#FCE96A;}
</style>
<g>
	<circle id="stationarypivotpoint" class="st0" cx="400" cy="400" r="1"/>
	<g>
		<g>
			<rect x="297" y="550" class="st1" width="206" height="500"/>
			<g>
				<circle class="st2" cx="400" cy="400" r="400"/>
				<path class="st3" d="M400,703.6C232.4,703.6,96.4,567.6,96.4,400S232.4,96.4,400,96.4S703.6,232.4,703.6,400
					S567.6,703.6,400,703.6z"/>
			</g>
			<circle class="st4" cx="400" cy="400" r="241.2"/>
		</g>
		<g id="detail">
			<g>
				<g>
					<circle class="st5" cx="400" cy="129.8" r="15.7"/>
					<circle class="st5" cx="400" cy="670.2" r="15.7"/>
					<circle class="st5" cx="670.2" cy="400" r="15.7"/>
					<circle class="st5" cx="129.8" cy="400" r="15.7"/>
				</g>
			</g>
			<g id="markers">
				<g>
					<path id="_x31_00_percent" class="st6" d="M572.2,471.3L572.2,471.3c1.3-4,6.2-6.2,10.2-4l15.6,6.7c4,1.3,6.2,6.2,4,10.2l0,0
						c-1.3,4-6.2,6.2-10.2,4l-15.6-6.7C572.2,480.2,569.9,475.3,572.2,471.3z"/>
					<path id="_x39_0_percent" class="st6" d="M618.5,400L618.5,400c0,4.5-3.6,8-8,8l-16.9,0c-4.5,0-8-3.6-8-8l0,0c0-4.5,3.6-8,8-8
						h16.9C614.9,392,618.5,395.5,618.5,400z"/>
					<path id="_x38_0_percent" class="st6" d="M602.4,316.3L602.4,316.3c1.3,4-0.4,8.5-4,10.2l-15.6,6.7c-4,1.3-8.5-0.4-10.2-4l0,0
						c-1.3-4,0.4-8.5,4-10.2l15.6-6.7C595.8,310.5,600.2,312.3,602.4,316.3z"/>
					<path id="_x37_0_percent" class="st6" d="M531.7,268.3L531.7,268.3c-3.1-3.1-3.1-8.2,0-11.3l12-12c3.1-3.1,8.2-3.1,11.3,0l0,0
						c3.1,3.1,3.1,8.2,0,11.3l-12,12C539.2,271.5,534.2,271.5,531.7,268.3z"/>
					<path id="_x36_0_percent" class="st6" d="M471.2,228L471.2,228c-3.8-1.9-5.7-6.3-4.4-10.1l6.3-15.7c1.9-3.8,6.3-5.7,10.1-4.4
						l0,0c3.8,1.9,5.7,6.3,4.4,10.1l-6.3,15.7C480,228,475,229.9,471.2,228z"/>
					<path id="_x35_0_percent" class="st6" d="M400,214.2L400,214.2c-4.4,0-8.2-3.8-8.2-8.2v-17c0-4.4,3.8-8.2,8.2-8.2l0,0
						c4.4,0,8.2,3.8,8.2,8.2v17C408.2,210.4,404.4,214.2,400,214.2z"/>
					<path id="_x34_0_percent" class="st6" d="M328.8,228L328.8,228c-3.8,1.9-8.8,0-10.1-4.4l-6.3-15.7c-1.9-3.8,0-8.8,4.4-10.1l0,0
						c3.8-1.9,8.8,0,10.1,4.4l6.3,15.7C335.1,221.7,333.2,226.8,328.8,228z"/>
					<path id="_x33_0_percent" class="st6" d="M268.3,269.1L268.3,269.1c-2.8,3.2-8.1,3.4-11-0.2l-11.8-12.1
						c-3.2-2.8-3.4-8.1,0.2-11l0,0c2.8-3.2,8.1-3.4,11,0.2l11.8,12.1C271.7,260.9,271.9,266.3,268.3,269.1z"/>
					<path id="_x32_0_percent" class="st6" d="M227.8,329.5L227.8,329.5c-1.7,4.1-6.4,6-10.5,4.3l-15.6-6.5c-4.1-1.7-6-6.4-4.3-10.5
						l0,0c1.7-4.1,6.4-6,10.5-4.3l15.6,6.5C227.9,321.3,229.8,325.9,227.8,329.5z"/>
					<path id="_x31_0_percent" class="st6" d="M213.7,400.8L213.7,400.8c-0.3,4.2-3.7,7.6-7.6,7.9l-17,0.2c-4.2-0.3-7.6-3.7-7.9-7.6
						l0,0c0.3-4.2,3.7-7.6,7.6-7.9l17-0.2C210.3,392.6,214,396.6,213.7,400.8z"/>
					<path id="_x30__percent" class="st6" d="M228.1,471.8L228.1,471.8c1.7,4.1-0.4,9-4.4,10.7l-15.7,6.5c-4.1,1.7-9-0.4-10.7-4.4
						l0,0c-1.7-4.1,0.4-9,4.4-10.7l15.7-6.5C221.5,465.7,226.4,467.8,228.1,471.8z"/>
				</g>
			</g>
		</g>
	</g>
</g>
<g id="pointer">
	<path id="pointer_00000060746675069509377280000017987503526150613890_" class="st7" d="M324.2,242.7c-1.3-1.9-3.1-2.5-5-1.3
		c-1.9,0.6-3.1,3.1-1.9,5l66.1,159.4c0.6,0.6,0.6,1.9,1.3,2.5c5,8.2,15.7,10.7,23.9,5.7c8.2-5,10.7-15.7,5.7-23.9L324.2,242.7z"/>
	<g>
		<line id="arrow_pointer" class="st8" x1="400" y1="400" x2="319.1" y2="241.4"/>
		<circle id="rotatingpiviotpinpointer" class="st0" cx="400" cy="400" r="1"/>
	</g>
</g>
<circle id="center_cover" class="st9" cx="400" cy="400" r="43.5"/>
</svg>
