<svg version="1.1" id="Layer_1" x="0px" y="0px" viewBox="0 0 171.8 120.8" style="enable-background:new 0 0 171.8 120.8;" xml:space="preserve">
<style type="text/css">
	.st0{fill:none;stroke:#F89F3F;}
	.st1{fill:#E5E7EA;}
	.st2{fill:#F89F3F;stroke:#E08A2F;stroke-width:0.5;}
	.st3{fill:#C3C3C3;}
	.st4{fill:#384550;stroke:#2B3A44;}
	.st5{fill:#13BAC7;}
	.st6{fill:#F89F3F;}
	.st7{fill:#384550;}
	.st8{fill:#007C90;}
	.st9{fill:#7A8795;}
	.st10{fill:#384550;stroke:#384550;stroke-width:1.5;}
	.st11{stroke:#000000;stroke-miterlimit:10;}
	.st12{fill:none;stroke:#000000;stroke-miterlimit:10;}
</style>
<!-- Artwork group - will be flipped -->
<g id="artwork">
	<circle id="cp2" class="st0" cx="33.3" cy="7.8" r="1.5" />
	<circle id="cp1" class="st0" cx="6.4" cy="69.4" r="1.5" />
	<path class="st1" d="M66.5,52.2v41.7c3.7-0.6,6.7-0.6,10.5,0V52.2 M73.3,65.2c-2.9,2-5.5-2.4-2.6-3.3    C73.5,61.1,75.2,63.9,73.3,65.2z M73.3,75.7c-2.9,2-5.5-2.4-2.6-3.3C73.5,71.5,75.2,74.3,73.3,75.7z M73.3,86.1    c-2.9,2-5.5-2.4-2.6-3.3C73.5,82,75.2,84.8,73.3,86.1z" />
	<path class="st1" d="M47.5,64.8h14.9c1.6,0,1.6,7.5,0,7.5H47.5C45.8,72.3,45.8,64.8,47.5,64.8z" />
	<rect id="_x3C_Rectangle_x3E_" x="66.5" y="52.2" class="st3" width="17" height="41.7" />
	<rect x="148" y="52.2" class="st3" width="17" height="41.7" />
	<path class="st4" d="M70.7,61.9c2.8-0.9,4.5,1.9,2.6,3.3C70.3,67.3,67.8,62.8,70.7,61.9z" />
	<path class="st4" d="M70.7,72.4c2.8-0.9,4.5,1.9,2.6,3.3C70.3,77.7,67.8,73.3,70.7,72.4z" />
	<path class="st4" d="M70.7,82.8c2.8-0.9,4.5,1.9,2.6,3.3C70.3,88.2,67.8,83.7,70.7,82.8z" />
	<path class="st5" d="M23.9,89.9c-0.9-7-0.9-33.4,0.1-40.2c1.1-7.6,10.9-10.2,16.9-6.1c2.1,1.4,3,3.6,3.2,6.1    c1.3,12.8-0.8,27.8-0.2,40.8c-0.5,7.6-14.4,8.4-17.8,4" />
	<path class="st5" d="M41.1,15.7v22c0,0.5-1.1,1-1.8,1.1c-2.3,0.1-5.7-1.2-9-0.7c-0.7,0.1-4.9,2.9-4.9,0.3V15.7H41.1z" />
	<path class="st7" d="M0,80.5c5.8-1.1,3,2.2,3.7,3c0.3,0.3,8.7,0.3,9,0c0.2-0.2-0.1-2.3,0-3c9.9,3.6,2,12.7,11.2,19    c7.5,5.1,17.8,3.1,23.9-3.1c2.1-2.3,0.4-8.7,4.1-9.2c7.4-0.9,4.8,0.2,5.7,4.1c0.6,2.8,4,7.1,7.1,7.1h19.7    c-0.2,1.2,0.4,3.5-0.1,4.4c-0.3,0.5-10.1,5.3-10.7,5.3H62.8v12.7h94.8l0-12.7c-3.7-0.1-7.3,0.5-11-0.6c-3.2-0.9-10.7-4.9-9.2-9.1H164    c1.3,0,5.4-3,7.1-3.4l0-44.6c-5.8-2.4-9.8-4.4-16.5-3.4V32.1H89.3c-1.8,0-5.1,4.5-6.2,5.2c-2.2,1.5-8.7,3.9-9.2,6.3    c-0.2,0.9,0.2,3.2,0,3.4c-0.4,0.4-8.2,0.2-11.1,1.2c-4.5,1.7-3,3.9-10.2,3.2c-5.1-0.5-2.6-1.8-3.7-5.3c-0.4-1.4-4.2-5.2-4.2-5.5V14.2    c0.7-0.1,2.8,0.2,3,0c0.3-0.3,0.3-8.6,0-9c-1-1-5,2.7-3.7-4.5H21.3c1.1,6.7-2.2,3.7-3,4.5c-0.3,0.3-0.2,7.6,0,8.5    c0.2,0.9,3,0.2,3,0.4v28c0,0.2-2,2.3-2.4,3.6c-1.4,4.3-1.5,11.5-7.3,12.5c-0.1-0.7,0.2-2.8,0-3c-0.3-0.3-8.7-0.3-9,0    c-0.7,0.8,2,4-3.7,3L0,80.5L0,80.5L0,80.5z M41.1,9.7H25.4V6h15.7V9.7z M41.1,13.4H25.4c-0.1,0-0.1-3,0-3    c2.2,0,15.1-0.6,15.7,0C41.2,10.5,41.3,13.4,41.1,13.4z M41.1,37.6c0,0.5-1.1,1-1.8,1.1c-2.3,0.1-5.7-1.2-9-0.7    c-0.7,0.1-4.9,2.9-4.9,0.3V15.7h15.7V37.6z M147.2,52.2c0,2.5,0,5,0,7.5c0,0.5,0,1,0,1.5c0,2.2,0,4.5,0,6.7c0,0.2,0,0.5,0,0.7    c0,2.5,0,5,0,7.5c0,0.7,0,1.5,0,2.2c0,2.5,0,5,0,7.5c0,0.2,0,0.5,0,0.7c0,2.5,0,5,0,7.5H80.7c0-2.5,0-5,0-7.5c0-0.2,0-0.5,0-0.7    c0-2.5,0-5,0-7.5c0-0.7,0-1.5,0-2.2c0-2.5,0-5,0-7.5c0-0.2,0-0.5,0-0.7c0-2.2,0-4.5,0-6.7c0-0.5,0-1,0-1.5c0-2.5-0.1-5,0-7.5    c0-1,0-2,0-3c0.1-1.5-0.3-2.8,0.2-4.3c0.3-0.8,10.6-7.6,11.3-7.6h55h0c0,4,0,8,0,11.9C147.2,50.2,147.2,51.2,147.2,52.2z     M23.9,89.9c-0.9-7-0.9-33.4,0.1-40.2c1.1-7.6,10.9-10.2,16.9-6.1c2.1,1.4,3,3.6,3.2,6.1c1.3,12.8-0.8,27.8-0.2,40.8    c-0.5,7.6-14.4,8.4-17.8,4 M71.8,52.2h5.2v41.7H66.5V52.2H71.8L71.8,52.2L71.8,52.2z M151.6,93.9V52.2h9.7v41.7 M8.3,75.3H4.6V63.4    h3.7V75.3z M12,75.3c0,0.1-3,0.1-3,0V63.4c0-0.1,2.5,0.1,3,0V75.3z" />
	<path class="st8" d="M80.7,49.2c0.1-1.5-0.3-2.8,0.2-4.3c0.3-0.8,10.6-7.6,11.3-7.6h55h0c0,4,0,8,0,11.9    C147.2,49.2,80.7,49.2,80.7,49.2z" />
	<path class="st8" d="M147.2,52.2c0,2.5,0,5,0,7.5H80.7c0-2.5-0.1-5,0-7.5H147.2z" />
	<path class="st8" d="M147.2,68.6c0,2.5,0,5,0,7.5H80.7c0-2.5,0-5,0-7.5H147.2z" />
	<path class="st8" d="M147.2,78.3c0,2.5,0,5,0,7.5H80.7c0-2.5,0-5,0-7.5H147.2z" />
	<path class="st8" d="M147.2,86.5c0,2.5,0,5,0,7.5H80.7c0-2.5,0-5,0-7.5H147.2z" />
	<path class="st8" d="M147.2,61.1c0,2.2,0,4.5,0,6.7H80.7c0-2.2,0-4.5,0-6.7C80.7,61.1,147.2,61.1,147.2,61.1z" />
	<path class="st3" d="M161.3,93.9V52.2c-3.4,0.4-6.4,0.8-9.7,0v41.7 M157.6,63c-2.9,2-5.5-2.4-2.6-3.3C157.9,58.8,159.6,61.6,157.6,63z     M157.6,73.4c-2.9,2-5.5-2.4-2.6-3.3C157.9,69.3,159.6,72.1,157.6,73.4z M157.6,83.9c-2.9,2-5.5-2.4-2.6-3.3    C157.9,79.7,159.6,82.5,157.6,83.9z" />
	<path class="st9" d="M147.2,49.2c0,1,0,2,0,3H80.7c0-1,0-2,0-3H147.2z" />
	<path class="st9" d="M147.2,76c0,0.7,0,1.5,0,2.2H80.7c0-0.7,0-1.5,0-2.2H147.2z" />
	<path class="st9" d="M147.2,59.6c0,0.5,0,1,0,1.5H80.7c0-0.5,0-1,0-1.5H147.2z" />
	<path class="st9" d="M147.2,67.8c0,0.2,0,0.5,0,0.7H80.7c0-0.2,0-0.5,0-0.7H147.2z" />
	<path class="st9" d="M147.2,85.7c0,0.2,0,0.5,0,0.7H80.7c0-0.2,0-0.5,0-0.7H147.2z" />
	<path class="st4" d="M155.1,59.7c2.8-0.9,4.5,1.9,2.6,3.3C154.7,65.1,152.2,60.6,155.1,59.7z" />
	<path class="st4" d="M155.1,70.1c2.8-0.9,4.5,1.9,2.6,3.3C154.7,75.5,152.2,71,155.1,70.1z" />
	<path class="st4" d="M155.1,80.6c2.8-0.9,4.5,1.9,2.6,3.3C154.7,85.9,152.2,81.5,155.1,80.6z" />
	<polyline class="st10" points="21.6,75.3 17.3,81.1 13.2,75.2   " />
	<path class="st5" d="M21.8,63.7c-0.1,3.9-0.1,7.7-0.2,11.6c-0.1,0.2-1.5,2.2-4.1,2.3c-2.8,0-4.2-2.3-4.3-2.4    c0.1-3.9,0.1-7.7,0.2-11.6c0.7-1.7,2.3-2.8,4.1-2.8C19.3,60.7,21.1,61.9,21.8,63.7L21.8,63.7L21.8,63.7z" />
	<rect x="46.3" y="64.9" class="st3" width="17" height="8.5" />
	<rect id="suction" x="4.6" y="63.4" class="st2" width="3.7" height="11.9" />
	<path id="suction2" class="st2" d="M12,63.4v11.9c0,0.1-3,0.1-3,0V63.4C9,63.2,11.5,63.5,12,63.4z" />
	<rect id="discharge2" x="25.4" y="5.999999999999999" class="st6" width="15.7" height="3.7" />
	<path id="discharge" class="st6" d="M41.1,10.4c0.1,0.1,0.1,3,0,3H25.4c-0.1,0-0.1-3,0-3C27.6,10.4,40.6,9.9,41.1,10.4z" />
</g>
<!-- Label group - will NOT be flipped -->
<g id="labels">
	<path id="compound_path_letter_V" class="st11" d="M94.7,40.8h7.1l8.2,28.3c1.8,6.2,3.1,11.2,5,17.3h0.3c1.9-6.1,3.2-11.1,5-17.3   l8.7-28.3h6.9l-17,52.5h-7.8L94.7,40.8z" />
	<g id="Arrow_for_variable_speed_pump">
		<line x1="82" y1="89.4" x2="147.1" y2="46.2" />
		<g>
			<line class="st12" x1="82" y1="89.4" x2="141.1" y2="50.2" />
			<g>
				<polygon points="142.7,55.1 147.1,46.2 137.1,46.8     " />
			</g>
		</g>
	</g>
</g>
</svg>
