<?xml version="1.0" encoding="utf-8"?>
<!-- Generator: Adobe Adobe Illustrator 29.2.0, SVG Export Plug-In . SVG Version: 6.00 Build 0)  -->
<svg version="1.1" id="Layer_1" xmlns="http://www.w3.org/2000/svg" xmlns:xlink="http://www.w3.org/1999/xlink" x="0px" y="0px"
	 viewBox="0 0 171.8 120.8" style="enable-background:new 0 0 171.8 120.8;" xml:space="preserve">
<style type="text/css">
	.st0{fill:#E5E7EA;}
	.st1{fill:#F89F3F;stroke:#E08A2F;stroke-width:0.5;}
	.st2{fill:#C3C3C3;}
	.st3{fill:#384550;stroke:#2B3A44;}
	.st4{fill:#13BAC7;}
	.st5{fill:#F89F3F;}
	.st6{fill:#384550;}
	.st7{fill:#007C90;}
	.st8{fill:#7A8795;}
	.st9{fill:#384550;stroke:#384550;stroke-width:1.5;}
	.st10{fill:none;stroke:#2B3A44;}
	.st11{stroke:#000000;stroke-miterlimit:10;}
	.st12{fill:none;stroke:#000000;stroke-miterlimit:10;}
	.st13{display:none;}
</style>
<g>
	<g transform="scale(-1, 1) translate(-171.75, 0)">
		<path class="st0" d="M105.3,52.2v41.7c-3.7-0.6-6.7-0.6-10.5,0V52.2 M98.5,65.2c2.9,2,5.5-2.4,2.6-3.3
			C98.3,61.1,96.6,63.9,98.5,65.2z M98.5,75.7c2.9,2,5.5-2.4,2.6-3.3C98.3,71.5,96.6,74.3,98.5,75.7z M98.5,86.1
			c2.9,2,5.5-2.4,2.6-3.3C98.3,82,96.6,84.8,98.5,86.1z"/>
		<path class="st0" d="M124.3,64.8h-14.9c-1.6,0-1.6,7.5,0,7.5h14.9C126,72.3,126,64.8,124.3,64.8z"/>
		<rect id="suction" x="163.5" y="75.3" class="st1" width="3.7" height="-11.9"/>
		<path id="suction2" class="st1" d="M159.8,63.4v11.9c0,0.1,3,0.1,3,0V63.4C162.8,63.2,160.3,63.5,159.8,63.4z"/>
		<rect id="_x3C_Rectangle_x3E_" x="88.3" y="93.9" class="st2" width="17" height="-41.7"/>
		<rect x="6.8" y="93.9" class="st2" width="17" height="-41.7"/>
		<path class="st3" d="M101.1,61.9c-2.8-0.9-4.5,1.9-2.6,3.3C101.5,67.3,104,62.8,101.1,61.9z"/>
		<path class="st3" d="M101.1,72.4c-2.8-0.9-4.5,1.9-2.6,3.3C101.5,77.7,104,73.3,101.1,72.4z"/>
		<path class="st3" d="M101.1,82.8c-2.8-0.9-4.5,1.9-2.6,3.3C101.5,88.2,104,83.7,101.1,82.8z"/>
		<path class="st4" d="M147.9,89.9c0.9-7,0.9-33.4-0.1-40.2c-1.1-7.6-10.9-10.2-16.9-6.1c-2.1,1.4-3,3.6-3.2,6.1
			c-1.3,12.8,0.8,27.8,0.2,40.8c0.5,7.6,14.4,8.4,17.8,4"/>
		<path class="st4" d="M130.7,15.7v22c0,0.5,1.1,1,1.8,1.1c2.3,0.1,5.7-1.2,9-0.7c0.7,0.1,4.9,2.9,4.9,0.3V15.7H130.7z"/>
		<rect id="discharge2" x="130.7" y="9.7" class="st5" width="15.7" height="-3.7"/>
		<path id="discharge" class="st5" d="M130.7,10.4c-0.1,0.1-0.1,3,0,3h15.7c0.1,0,0.1-3,0-3C144.2,10.4,131.2,9.9,130.7,10.4z"/>
		<path class="st6" d="M171.8,80.5c-5.8-1.1-3,2.2-3.7,3c-0.3,0.3-8.7,0.3-9,0c-0.2-0.2,0.1-2.3,0-3c-9.9,3.6-2,12.7-11.2,19
			c-7.5,5.1-17.8,3.1-23.9-3.1c-2.1-2.3-0.4-8.7-4.1-9.2c-7.4-0.9-4.8,0.2-5.7,4.1c-0.6,2.8-4,7.1-7.1,7.1H87.4
			c0.2,1.2-0.4,3.5,0.1,4.4c0.3,0.5,10.1,5.3,10.7,5.3H109v12.7H14.2l0-12.7c3.7-0.1,7.3,0.5,11-0.6c3.2-0.9,10.7-4.9,9.2-9.1H7.8
			c-1.3,0-5.4-3-7.1-3.4l0-44.6c5.8-2.4,9.8-4.4,16.5-3.4V32.1h65.3c1.8,0,5.1,4.5,6.2,5.2c2.2,1.5,8.7,3.9,9.2,6.3
			c0.2,0.9-0.2,3.2,0,3.4c0.4,0.4,8.2,0.2,11.1,1.2c4.5,1.7,3,3.9,10.2,3.2c5.1-0.5,2.6-1.8,3.7-5.3c0.4-1.4,4.2-5.2,4.2-5.5V14.2
			c-0.7-0.1-2.8,0.2-3,0c-0.3-0.3-0.3-8.6,0-9c1-1,5,2.7,3.7-4.5h21.7c-1.1,6.7,2.2,3.7,3,4.5c0.3,0.3,0.2,7.6,0,8.5
			c-0.2,0.9-3,0.2-3,0.4v28c0,0.2,2,2.3,2.4,3.6c1.4,4.3,1.5,11.5,7.3,12.5c0.1-0.7-0.2-2.8,0-3c0.3-0.3,8.7-0.3,9,0
			c0.7,0.8-2,4,3.7,3L171.8,80.5L171.8,80.5L171.8,80.5z M130.7,9.7h15.7V6h-15.7V9.7z M130.7,13.4h15.7c0.1,0,0.1-3,0-3
			c-2.2,0-15.1-0.6-15.7,0C130.6,10.5,130.5,13.4,130.7,13.4z M130.7,37.6c0,0.5,1.1,1,1.8,1.1c2.3,0.1,5.7-1.2,9-0.7
			c0.7,0.1,4.9,2.9,4.9,0.3V15.7h-15.7V37.6z M24.6,52.2c0,2.5,0,5,0,7.5c0,0.5,0,1,0,1.5c0,2.2,0,4.5,0,6.7c0,0.2,0,0.5,0,0.7
			c0,2.5,0,5,0,7.5c0,0.7,0,1.5,0,2.2c0,2.5,0,5,0,7.5c0,0.2,0,0.5,0,0.7c0,2.5,0,5,0,7.5h66.5c0-2.5,0-5,0-7.5c0-0.2,0-0.5,0-0.7
			c0-2.5,0-5,0-7.5c0-0.7,0-1.5,0-2.2c0-2.5,0-5,0-7.5c0-0.2,0-0.5,0-0.7c0-2.2,0-4.5,0-6.7c0-0.5,0-1,0-1.5c0-2.5,0.1-5,0-7.5
			c0-1,0-2,0-3c-0.1-1.5,0.3-2.8-0.2-4.3c-0.3-0.8-10.6-7.6-11.3-7.6H24.6c0,4,0,8,0,11.9C24.6,50.2,24.6,51.2,24.6,52.2z
			 M147.9,89.9c0.9-7,0.9-33.4-0.1-40.2c-1.1-7.6-10.9-10.2-16.9-6.1c-2.1,1.4-3,3.6-3.2,6.1c-1.3,12.8,0.8,27.8,0.2,40.8
			c0.5,7.6,14.4,8.4,17.8,4 M100,52.2h-5.2v41.7h10.5V52.2H100L100,52.2L100,52.2z M20.2,93.9V52.2h-9.7v41.7 M163.5,75.3h3.7V63.4
			h-3.7V75.3z M159.8,75.3c0,0.1,3,0.1,3,0V63.4c0-0.1-2.5,0.1-3,0V75.3z"/>
		<path class="st7" d="M91.1,49.2c-0.1-1.5,0.3-2.8-0.2-4.3c-0.3-0.8-10.6-7.6-11.3-7.6H24.6c0,4,0,8,0,11.9
			C24.6,49.2,91.1,49.2,91.1,49.2z"/>
		<path class="st7" d="M24.6,52.2c0,2.5,0,5,0,7.5h66.5c0-2.5,0.1-5,0-7.5H24.6z"/>
		<path class="st7" d="M24.6,68.6c0,2.5,0,5,0,7.5h66.5c0-2.5,0-5,0-7.5H24.6z"/>
		<path class="st7" d="M24.6,78.3c0,2.5,0,5,0,7.5h66.5c0-2.5,0-5,0-7.5H24.6z"/>
		<path class="st7" d="M24.6,86.5c0,2.5,0,5,0,7.5h66.5c0-2.5,0-5,0-7.5H24.6z"/>
		<path class="st7" d="M24.6,61.1c0,2.2,0,4.5,0,6.7h66.5c0-2.2,0-4.5,0-6.7C91.1,61.1,24.6,61.1,24.6,61.1z"/>
		<path class="st2" d="M10.5,93.9V52.2c3.4,0.4,6.4,0.8,9.7,0v41.7 M14.2,63c2.9,2,5.5-2.4,2.6-3.3C13.9,58.8,12.2,61.6,14.2,63z
			 M14.2,73.4c2.9,2,5.5-2.4,2.6-3.3C13.9,69.3,12.2,72.1,14.2,73.4z M14.2,83.9c2.9,2,5.5-2.4,2.6-3.3
			C13.9,79.7,12.2,82.5,14.2,83.9z"/>
		<path class="st8" d="M24.6,49.2c0,1,0,2,0,3h66.5c0-1,0-2,0-3H24.6z"/>
		<path class="st8" d="M24.6,76c0,0.7,0,1.5,0,2.2h66.5c0-0.7,0-1.5,0-2.2H24.6z"/>
		<path class="st8" d="M24.6,59.6c0,0.5,0,1,0,1.5h66.5c0-0.5,0-1,0-1.5H24.6z"/>
		<path class="st8" d="M24.6,67.8c0,0.2,0,0.5,0,0.7h66.5c0-0.2,0-0.5,0-0.7H24.6z"/>
		<path class="st8" d="M24.6,85.7c0,0.2,0,0.5,0,0.7h66.5c0-0.2,0-0.5,0-0.7H24.6z"/>
		<path class="st3" d="M16.7,59.7c-2.8-0.9-4.5,1.9-2.6,3.3C17.1,65.1,19.6,60.6,16.7,59.7z"/>
		<path class="st3" d="M16.7,70.1c-2.8-0.9-4.5,1.9-2.6,3.3C17.1,75.5,19.6,71,16.7,70.1z"/>
		<path class="st3" d="M16.7,80.6c-2.8-0.9-4.5,1.9-2.6,3.3C17.1,85.9,19.6,81.5,16.7,80.6z"/>
		<polyline class="st9" points="150.2,75.3 154.5,81.1 158.6,75.2 		"/>
		<path class="st4" d="M150,63.7c0.1,3.9,0.1,7.7,0.2,11.6c0.1,0.2,1.5,2.2,4.1,2.3c2.8,0,4.2-2.3,4.3-2.4
			c-0.1-3.9-0.1-7.7-0.2-11.6c-0.7-1.7-2.3-2.8-4.1-2.8C152.5,60.7,150.7,61.9,150,63.7L150,63.7L150,63.7z"/>
		<rect x="108.5" y="73.4" class="st2" width="17" height="-8.5"/>
		<circle id="cp2" class="st10" cx="138.5" cy="7.8" r="1.5"/>
		<circle id="cp1" class="st10" cx="165.4" cy="69.4" r="1.5"/>
	</g>
	<path class="st11" d="M94.7,40.8h7.1l8.2,28.3c1.8,6.2,3.1,11.2,5,17.3h0.3c1.9-6.1,3.2-11.1,5-17.3l8.7-28.3h6.9l-17,52.5h-7.8
		L94.7,40.8z"/>
	<g>
		<line x1="82" y1="89.4" x2="147.1" y2="46.2"/>
		<g>
			<line class="st12" x1="82" y1="89.4" x2="141.1" y2="50.2"/>
			<g>
				<polygon points="142.7,55.1 147.1,46.2 137.1,46.8 				"/>
			</g>
		</g>
	</g>
</g>
<path class="st13" d="M98.1,84.8l3.3-4.3c3,3.2,7,6,13,6c6.1,0,10.5-3.6,10.5-9.2c0-6.1-4.1-10.1-16.3-10.1v-5
	c10.8,0,14.4-4.1,14.4-9.5c0-4.9-3.3-8-8.8-8c-4.2,0-7.8,2.2-10.8,5.1l-3.5-4.1c3.9-3.7,8.6-6.4,14.6-6.4c8.8,0,15.2,4.7,15.2,12.9
	c0,6.1-3.7,10-9.2,12.1v0.3c6.1,1.4,11,5.9,11,12.9c0,9-7.5,14.5-16.8,14.5C106.7,92,101.6,88.5,98.1,84.8z"/>
</svg>
