<?xml version="1.0" encoding="utf-8"?>
<!-- Generator: Adobe Adobe Illustrator 29.2.0, SVG Export Plug-In . SVG Version: 6.00 Build 0)  -->
<svg version="1.1" id="Layer_1" xmlns="http://www.w3.org/2000/svg" xmlns:xlink="http://www.w3.org/1999/xlink" x="0px" y="0px"
	 viewBox="0 0 150 150" style="enable-background:new 0 0 150 150;" xml:space="preserve">
<style type="text/css">
	.st0{fill:#13BAC7;}
	.st1{fill:#7A8795;}
	.st2{fill:#384550;}
	.st3{fill:#4B6477;}
	.st4{fill:#FF0000;}
	.st5{fill:#0000FF;}
</style>
<g id="Heat_exchanger_body">
	<g id="background" transform="matrix(1 0 0 1 0 -0.5)">
		<path class="st0" d="M45,108.31h-9.68v16.88H45v9.38h15.48h15.48h14.52h0.97h15.1V42.69h10.06V25.81h-10.06v-9.38h-15.1h-0.97
			H75.97H60.48H45V108.31z"/>
	</g>
	<g id="outlines">
		<g>
			<g>
				<g>
					<g transform="matrix(1 0 0 1 0 -0.5)">
						<path class="st1" d="M117.58,24.88v18.75h-9.68v91.88H91.45v-1.88h14.52V41.75h9.68v-15h-9.68v-9.38H91.45V15.5h16.45v9.38
							H117.58z M60.48,15.5v1.88H45.97v91.88h-9.68v15h9.68v9.38h14.52v1.88H44.03v-9.38h-9.68v-18.75h9.68V15.5H60.48z"/>
					</g>
					<g transform="matrix(1 0 0 1 0.5 -0.5)">
						<path class="st1" d="M59.02,133.62V16.44h1.94v117.19H59.02z M74.5,133.62V15.5h1.94v118.12H74.5z M89.98,133.62V15.5h1.94
							v118.12H89.98z"/>
					</g>
				</g>
				<g transform="matrix(1 0 0 1 35.5 -0.5)">
					<path class="st1" d="M72.4,4.25v13.12H8.53V4.25c0-3.75,31.55-3.75,31.94-3.75C40.85,0.5,72.4,0.5,72.4,4.25z M70.47,15.5V4.62
						c-2.32-0.94-16.65-2.25-30-2.25s-27.68,1.31-30,2.25V15.5H70.47z"/>
				</g>
			</g>
			<path class="st1" d="M107.9,133.12v13.12c0,3.75-31.55,3.75-31.94,3.75s-31.94,0-31.94-3.75v-13.12H107.9z"/>
		</g>
		<g>
			<g>
				<g transform="matrix(1 0 0 1 35.5 -0.5)">
					<path class="st2" d="M9.5,4.25v12.19h61.94V4.25c0-1.5-18.19-2.81-30.97-2.81S9.5,2.75,9.5,4.25z"/>
				</g>
				<g transform="matrix(1 0 0 1 -35.5 -0.5)">
					<path class="st3" d="M80.5,146.75v-12.19h61.94v12.19c0,1.5-18.19,2.81-30.97,2.81S80.5,148.25,80.5,146.75z"/>
				</g>
			</g>
			<path class="st2" d="M105.97,145.88V135h-60v10.88c2.32,0.94,16.65,2.25,30,2.25S103.65,146.81,105.97,145.88z"/>
		</g>
	</g>
</g>
<circle id="cp2_hot" class="st0" cx="112.84" cy="33.75" r="1"/>
<circle id="cp1_cold" class="st0" cx="38.62" cy="116.46" r="1"/>
<g id="heat_transfer_path">
	<g id="hotside">
		<polygon class="st4" points="92.42,28.12 92.42,39.38 100.16,33.75 		"/>
		<polygon class="st4" points="109.97,28.12 109.97,39.38 117.71,33.75 		"/>
		<polygon class="st4" points="86.61,48.75 86.61,60 78.87,54.38 		"/>
		<path class="st4" d="M94.35,31.88v3.75h-30c-4.84,0-8.71,3.75-8.71,8.44s3.87,8.44,8.71,8.44h8.71v3.75h-8.71
			c-6.97,0-12.58-5.44-12.58-12.19s5.61-12.19,12.58-12.19H94.35z"/>
		<rect x="105.34" y="31.88" class="st4" width="7.5" height="3.75"/>
		<path class="st4" d="M100.16,64.69c0,6.75-5.61,12.19-12.58,12.19h-8.71v-3.75h8.71c4.84,0,8.71-3.75,8.71-8.44
			s-3.87-8.44-8.71-8.44h-3.1V52.5h3.1C94.55,52.5,100.16,57.94,100.16,64.69z"/>
	</g>
	<g id="coolside">
		<polygon class="st5" points="86.61,90 86.61,101.25 78.87,95.62 		"/>
		<polygon class="st5" points="39.62,110.63 39.62,121.88 47.36,116.25 		"/>
		<polygon class="st5" points="65.32,69.38 65.32,80.62 73.06,75 		"/>
		<path class="st5" d="M73.06,93.75v3.75h-8.71c-6.97,0-12.58-5.44-12.58-12.19s5.61-12.19,12.58-12.19h4.84v3.75h-4.84
			c-4.84,0-8.71,3.75-8.71,8.44s3.87,8.44,8.71,8.44H73.06z"/>
		<path class="st5" d="M100.16,105.94c0,6.75-5.61,12.19-12.58,12.19H51.77v-3.75h35.81c4.84,0,8.71-3.75,8.71-8.44
			s-3.87-8.44-8.71-8.44h-2.52v-3.75h2.52C94.55,93.75,100.16,99.19,100.16,105.94z"/>
		<rect x="34.37" y="114.38" class="st5" width="6.5" height="3.75"/>
	</g>
</g>
</svg>
