<?xml version="1.0" encoding="utf-8"?>
<!-- Generator: Adobe Adobe Illustrator 29.2.0, SVG Export Plug-In . SVG Version: 6.00 Build 0)  -->
<svg version="1.1" id="feedstockpumpjack" xmlns:xlink="http://www.w3.org/1999/xlink"
	 xmlns="http://www.w3.org/2000/svg" x="0px" y="0px" viewBox="0 0 150 150"
	 style="enable-background:new 0 0 150 150;" xml:space="preserve">
<style type="text/css">
	.st0{fill:#F9A03F;}
	.st4{fill:#13BBC8;}
</style>
<circle id="feedstockcircle" class="st0" cx="75" cy="75" r="75"/>
<circle id="cp_x5F_right" class="st0" cx="142" cy="71" r="4"/>
<g id="SVGRepo_iconCarrier">
	<path class="st4" fill="#13BBC8" d="M50.1,28c-3.4,0-6.3,3.2-6.3,7v2.7c-3.6,1-6.3,4.6-6.3,9v11.6h12.6v4.7H37.6v14.8c-4.9,1.9-8.4,7.1-8.4,13.1
		c0,6.1,3.5,11.2,8.4,13.1v12.4H25v4.7h96.3h4.2v-2.3v-2.3h-6.3V72.2H117l-2.1-34.9h-8.2l-1.8,30.2h6v4.7H71.1V35c0-3.8-2.8-7-6.3-7
		H50.1z M50.1,32.7h14.7c1.2,0,2.1,1,2.1,2.3v37.2h-8.4v44.2h-4.2V46.6c0-4.3-2.7-7.9-6.3-9V35C48,33.7,48.9,32.7,50.1,32.7z
		 M41.8,81.5c4.6,0,8.4,4.2,8.4,9.3s-3.8,9.3-8.4,9.3s-8.4-4.2-8.4-9.3S37.1,81.5,41.8,81.5z M64.8,81.5h8.4v4.7h-8.4V81.5z
		 M77.3,81.5h8.4v4.7h-8.4V81.5z M92,81.5h8.4v4.7H92V81.5z M104.6,81.5h8.4v4.7h-8.4V81.5z M64.8,93.1h8.4v4.7h-8.4V93.1z
		 M77.3,93.1h8.4v4.7h-8.4V93.1z M92,93.1h8.4v4.7H92V93.1z M104.6,93.1h8.4v4.7h-8.4V93.1z"/>
</g>
<circle id="cp_x5F_left" class="st0" cx="12.6" cy="71" r="4"/>
</svg>
