<?xml version="1.0" encoding="utf-8"?>
<!-- Generator: Adobe Adobe Illustrator 29.2.0, SVG Export Plug-In . SVG Version: 6.00 Build 0)  -->
<svg version="1.1" id="feedstockpumpjack" xmlns:xlink="http://www.w3.org/1999/xlink"
	 xmlns="http://www.w3.org/2000/svg" x="0px" y="0px" viewBox="0 0 150 150"
	 style="enable-background:new 0 0 150 150;" xml:space="preserve">
<style type="text/css">
	.st0{fill:#F9A03F;}
	.st3{fill:#13BBC8;}
</style>
<circle id="feedstockcircle" class="st0" cx="75" cy="75" r="75"/>
<circle id="cp_x5F_right" class="st0" cx="142" cy="71" r="4"/>
<g>
	<path class="st3" fill="#13BBC8" d="M122.6,102L93.3,68.5V37.9c2.2-0.6,3.8-2.3,3.8-4.2v-1.8c0-2.4-2.5-4.4-5.6-4.4H59.1c-3.1,0-5.6,2-5.6,4.4v1.8
		c0,1.9,1.6,3.6,3.8,4.2v30.3L27.9,102c-3.4,3.9-3.8,9-1.1,13.2c2.8,4.2,8.2,6.8,14.1,6.8h68.6c6,0,11.4-2.6,14.1-6.8
		C126.4,110.9,126,105.9,122.6,102z M82.5,36.7v34c0,0.3,0.1,0.6,0.3,0.8l7.7,8.8H59.9l3.4-3.9h11.9c1,0,1.8-0.6,1.8-1.4
		c0-0.8-0.8-1.4-1.8-1.4h-9.4l1.9-2.2c0.2-0.2,0.3-0.5,0.3-0.8v-0.9h7.1c1,0,1.8-0.6,1.8-1.4s-0.8-1.4-1.8-1.4h-7.1v-3.9h7.1
		c1,0,1.8-0.6,1.8-1.4c0-0.8-0.8-1.4-1.8-1.4h-7.1V56h7.1c1,0,1.8-0.6,1.8-1.4c0-0.8-0.8-1.4-1.8-1.4h-7.1v-3.9h7.1
		c1,0,1.8-0.6,1.8-1.4s-0.8-1.4-1.8-1.4h-7.1v-9.6C68.1,36.7,82.5,36.7,82.5,36.7z M114.1,111.2c-0.9,1.4-2.7,2.2-4.6,2.2H41
		c-1.9,0-3.7-0.9-4.6-2.2c-0.9-1.4-0.8-3,0.3-4.3l20.7-23.7h35.7l20.7,23.7C114.9,108.2,115,109.8,114.1,111.2z"/>
	<path id="_x3C_Path_x3E_" class="st3" fill="#13BBC8" d="M75.2,87.2H62.8c-1,0-1.8,0.6-1.8,1.4c0,0.8,0.8,1.4,1.8,1.4h12.4c1,0,1.8-0.6,1.8-1.4
		C77,87.8,76.2,87.2,75.2,87.2z"/>
	<ellipse class="st3" fill="#13BBC8" cx="54.5" cy="104.5" rx="6.6" ry="5.2"/>
	<ellipse class="st3" fill="#13BBC8" cx="82.8" cy="95.2" rx="1.9" ry="1.6"/>
	<ellipse class="st3" fill="#13BBC8" cx="95.7" cy="104.2" rx="3.4" ry="2.7"/>
	<ellipse class="st3" fill="#13BBC8" cx="72" cy="103.8" rx="2.9" ry="2.4"/>
</g>
<circle id="cp_x5F_left" class="st0" cx="12.6" cy="71" r="4"/>
</svg>
