<?xml version="1.0" encoding="utf-8"?>
<!-- Generator: Adobe Adobe Illustrator 29.2.0, SVG Export Plug-In . SVG Version: 6.00 Build 0)  -->
<svg version="1.1" id="feedstockpumpjack" xmlns:xlink="http://www.w3.org/1999/xlink"
	 xmlns="http://www.w3.org/2000/svg" x="0px" y="0px" viewBox="0 0 150 150"
	 style="enable-background:new 0 0 150 150;" xml:space="preserve">
<style type="text/css">
	.st0{fill:#F9A03F;}
	.st1{display:none;}
	.st2{display:inline;fill:#25B9C6;stroke:#080808;stroke-miterlimit:10;}
	.st3{fill:#13BBC8 !important;}
	.st4{display:inline;fill:#13BBC8;}
</style>
<circle id="feedstockcircle" class="st0" cx="75" cy="75" r="75"/>
<g id="pumpjack" class="st1">
	<path class="st2" d="M123.4,118.7h-3.6v-9c0-0.9-0.7-1.7-1.6-1.7h-1.8V87.9c2-0.7,3.5-2.7,3.5-5s-1.4-4.3-3.5-5V59.8l2.2-0.9
		c0.7-0.3,1.1-1,1-1.7l-1.8-18.5c0-0.3-0.1-0.5-0.2-0.7l-5.6-9.2c-0.4-0.7-1.3-1-2-0.7l-9.6,4.1c-0.7,0.3-1.1,1.1-1,1.9l1.3,5.7
		l-22.2,9.5c-1-0.6-2.2-0.9-3.4-0.9c-2.9,0-5.4,1.8-6.4,4.5l-0.3,0.7L32.8,68.7c-0.4,0.2-0.7,0.5-0.9,0.9c-0.2,0.4-0.2,0.9,0,1.3
		l1.8,4.4c-0.1,0.2-0.1,0.4-0.1,0.6v30.4h-5.3c-0.9,0-1.6,0.7-1.6,1.7v10.8h-0.1c-0.9,0-1.6,0.7-1.6,1.7c0,0.9,0.7,1.7,1.6,1.7h96.8
		c0.9,0,1.6-0.7,1.6-1.7C125,119.4,124.3,118.7,123.4,118.7z M111.3,108c-0.9,0-1.6,0.7-1.6,1.7v9h-4.2L83.4,58.5l21.7-9.3l8,10.1
		V78c-2,0.7-3.5,2.7-3.5,5s1.4,4.3,3.5,5V108L111.3,108L111.3,108z M105.8,41.2c0.5-0.2,1-0.2,1.4,0c0.5,0.2,0.8,0.6,1,1l0,0
		c0.2,0.5,0.2,1,0,1.4c-0.2,0.5-0.5,0.8-1,1L82.3,55.3l-0.9-2.5c-0.1-0.4-0.3-0.7-0.5-1L105.8,41.2z M110,46.7l2.8,6.9l-4.6-5.8
		l0.2-0.1C109,47.5,109.6,47.2,110,46.7z M114.7,84.8c-1,0-1.8-0.8-1.8-1.9s0.8-1.9,1.8-1.9s1.8,0.8,1.8,1.9S115.8,84.8,114.7,84.8z
		 M114.5,39.4l1.3,13l-4.6-11.4c0,0,0,0,0,0c0,0,0,0,0,0l-3.3-8.3l2-0.9L114.5,39.4z M102.8,34.8l2-0.9l1.5,3.8
		c-0.6,0-1.2,0.1-1.8,0.4l-0.9,0.4L102.8,34.8z M75,51.7c1.2,0,2.7,0.6,3.3,2.4l23.7,64.6h-4L76.5,68c-0.3-0.6-0.8-1-1.5-1
		s-1.2,0.4-1.5,1L52,118.7h-4L71.7,54C72.3,52.3,73.8,51.7,75,51.7z M81.3,100.6l-6.3,4l-6.3-4H81.3L81.3,100.6z M67,97.3l8-9.1
		l8,9.1L67,97.3L67,97.3z M87,101l6.5,15.2l-15.3-9.6L87,101z M77.2,85.7l2.2-2.5l4.2,9.8L77.2,85.7z M75,83.3l-3-3.4l3-7l3,7
		L75,83.3z M70.6,83.2l2.2,2.5L66.4,93L70.6,83.2z M63,101l8.9,5.6l-15.3,9.6L63,101z M75,108.5l16.2,10.2H58.8L75,108.5z
		 M66.8,57.8L65,62.7l-28,12l-1.4-3.5L66.8,57.8z M36.9,78.3L63.5,67l-19,51.7h-0.7v-10.8c0-0.9-0.7-1.7-1.6-1.7h-5.3V78.3z
		 M30,109.5h10.6v9.1H30V109.5z M112.9,118.7v-7.3h3.7v7.3H112.9z"/>
	<path class="st2" d="M75,58.5c1.2,0,2.2-1,2.2-2.3c0-1.2-1-2.3-2.2-2.3s-2.2,1-2.2,2.3C72.8,57.5,73.8,58.5,75,58.5z"/>
</g>
<circle id="cp_x5F_right" class="st0" cx="142" cy="71" r="4"/>
<g>
	<path class="st3" fill="#13BBC8" d="M122.6,102L93.3,68.5V37.9c2.2-0.6,3.8-2.3,3.8-4.2v-1.8c0-2.4-2.5-4.4-5.6-4.4H59.1c-3.1,0-5.6,2-5.6,4.4v1.8
		c0,1.9,1.6,3.6,3.8,4.2v30.3L27.9,102c-3.4,3.9-3.8,9-1.1,13.2c2.8,4.2,8.2,6.8,14.1,6.8h68.6c6,0,11.4-2.6,14.1-6.8
		C126.4,110.9,126,105.9,122.6,102z M82.5,36.7v34c0,0.3,0.1,0.6,0.3,0.8l7.7,8.8H59.9l3.4-3.9h11.9c1,0,1.8-0.6,1.8-1.4
		c0-0.8-0.8-1.4-1.8-1.4h-9.4l1.9-2.2c0.2-0.2,0.3-0.5,0.3-0.8v-0.9h7.1c1,0,1.8-0.6,1.8-1.4s-0.8-1.4-1.8-1.4h-7.1v-3.9h7.1
		c1,0,1.8-0.6,1.8-1.4c0-0.8-0.8-1.4-1.8-1.4h-7.1V56h7.1c1,0,1.8-0.6,1.8-1.4c0-0.8-0.8-1.4-1.8-1.4h-7.1v-3.9h7.1
		c1,0,1.8-0.6,1.8-1.4s-0.8-1.4-1.8-1.4h-7.1v-9.6C68.1,36.7,82.5,36.7,82.5,36.7z M114.1,111.2c-0.9,1.4-2.7,2.2-4.6,2.2H41
		c-1.9,0-3.7-0.9-4.6-2.2c-0.9-1.4-0.8-3,0.3-4.3l20.7-23.7h35.7l20.7,23.7C114.9,108.2,115,109.8,114.1,111.2z"/>
	<path id="_x3C_Path_x3E_" class="st3" fill="#13BBC8" d="M75.2,87.2H62.8c-1,0-1.8,0.6-1.8,1.4c0,0.8,0.8,1.4,1.8,1.4h12.4c1,0,1.8-0.6,1.8-1.4
		C77,87.8,76.2,87.2,75.2,87.2z"/>
	<ellipse class="st3" fill="#13BBC8" cx="54.5" cy="104.5" rx="6.6" ry="5.2"/>
	<ellipse class="st3" fill="#13BBC8" cx="82.8" cy="95.2" rx="1.9" ry="1.6"/>
	<ellipse class="st3" fill="#13BBC8" cx="95.7" cy="104.2" rx="3.4" ry="2.7"/>
	<ellipse class="st3" fill="#13BBC8" cx="72" cy="103.8" rx="2.9" ry="2.4"/>
</g>
<g id="SVGRepo_iconCarrier" class="st1">
	<path class="st4" d="M50.1,28c-3.4,0-6.3,3.2-6.3,7v2.7c-3.6,1-6.3,4.6-6.3,9v11.6h12.6v4.7H37.6v14.8c-4.9,1.9-8.4,7.1-8.4,13.1
		c0,6.1,3.5,11.2,8.4,13.1v12.4H25v4.7h96.3h4.2v-2.3v-2.3h-6.3V72.2H117l-2.1-34.9h-8.2l-1.8,30.2h6v4.7H71.1V35c0-3.8-2.8-7-6.3-7
		H50.1z M50.1,32.7h14.7c1.2,0,2.1,1,2.1,2.3v37.2h-8.4v44.2h-4.2V46.6c0-4.3-2.7-7.9-6.3-9V35C48,33.7,48.9,32.7,50.1,32.7z
		 M41.8,81.5c4.6,0,8.4,4.2,8.4,9.3s-3.8,9.3-8.4,9.3s-8.4-4.2-8.4-9.3S37.1,81.5,41.8,81.5z M64.8,81.5h8.4v4.7h-8.4V81.5z
		 M77.3,81.5h8.4v4.7h-8.4V81.5z M92,81.5h8.4v4.7H92V81.5z M104.6,81.5h8.4v4.7h-8.4V81.5z M64.8,93.1h8.4v4.7h-8.4V93.1z
		 M77.3,93.1h8.4v4.7h-8.4V93.1z M92,93.1h8.4v4.7H92V93.1z M104.6,93.1h8.4v4.7h-8.4V93.1z"/>
</g>
<circle id="cp_x5F_left" class="st0" cx="12.6" cy="71" r="4"/>
</svg>
