<?xml version="1.0" encoding="UTF-8"?>
<svg id="Layer_1" data-name="Layer 1" xmlns="http://www.w3.org/2000/svg" viewBox="0 0 359.25 654.75">
  <defs>
    <style>
      .cls-1 {
        fill: #949299;
      }

      .cls-2 {
        fill: #15bac7;
      }

      .cls-3 {
        fill: #384551;
      }
    </style>
  </defs>
  <rect class="cls-2" x="10.14" y="88.127" width="342.685" height="396.825"/>
  <path class="cls-1" d="M8.571,191.429c0-30.004,1.284-90.485,1.689-108.809.076-3.429.121-5.382.121-5.382l2.381-5.81,6.19-9.143,8.762-6.286,14.476-7.714,37.143-14.571,24.667-7.429,39.619-6.286,12.762-1.524h47.429l25.714,2.095,64.19,16.762,38.159,16.381,8,5.333,8.254,8.127,3.556,9.016,1.143,11.937v89.016c-2.207.143-5.466.379-9.397.762-37.613,3.667-47.026,12.062-66.286,13.524-31.318,2.377-33.111-17.795-63.619-14.667-24.588,2.521-24.952,15.781-48,17.524-31.257,2.364-37.144-21.526-66.286-18.286-22.112,2.459-27.281,17.164-54.857,19.175-13.013.949-23.861-1.451-30.857-3.556l-4.952-.19Z"/>
  <rect class="cls-1" x="292.762" y="149.714" width="60.064" height="335.619"/>
  <rect class="cls-1" x="8.571" y="149.714" width="60.064" height="335.619"/>
  <rect class="cls-1" x="8.571" y="458.286" width="344.381" height="27.048"/>
  <rect class="cls-3" x="10.26" y="82.62" width="342.565" height="5.507"/>
  <rect class="cls-3" x="8.342" y="482.199" width="344.483" height="5.507"/>
</svg>