<?xml version="1.0" encoding="UTF-8"?>
<svg id="Layer_1" data-name="Layer 1" xmlns="http://www.w3.org/2000/svg" viewBox="0 0 683.25 693.75">
  <defs>
    <style>
      .cls-1 {
        fill: #949299;
      }

      .cls-2 {
        fill: none;
      }

      .cls-3 {
        fill: #15bac7;
      }

      .cls-4 {
        fill: #384551;
      }
    </style>
  </defs>
  <path id="valve_body" data-name="valve body" class="cls-4" d="M618.201,395.018c0-.05-.029-.096-.075-.117l-5.056-2.308c.003-.012-.005-.024-.018-.024l-124.649-.18c-.015,0-.029-.004-.042-.012-11.879-7.741-23.584-17.812-33.172-28.266-4.102-4.473-15.364-17.262-15.364-22.861v-114.186c0-.038.031-.07.068-.076l-.128-1.131-.048-1.476c-74.156-.904-199.418-.392-197.386-.394.466,0-.878.304-1.017.749-.142.453.197,1.622.593,1.884l.19,1.429c.026.017.667,1.714.667,1.714l-.216,5.077s1.59,72.874-.021,108.593c0,.012-.004.024-.01.034-11.086,19.873-29.101,37.082-48.334,49.058-.012.007-.026.011-.04.012l-123.293.784c-.017,0-.033.006-.046.016l-2.262,1.787c-.018.014-.029.036-.029.059l.01,204.576,128.813.958c24.66,19.319,46.968,42.149,76.044,55.057,45.116,20.028,98.913,19.005,142.902-4.088,24.027-12.614,43.801-32.533,65.39-48.853l135.145,1.005,1.559-3.303c.005-.01.007-.021.007-.032l-.182-205.483v-.002Z"/>
  <path id="handle" class="cls-3" d="M251.943,1.008c63.987-.149,128.012.026,192,0,18.836-.008,37.665-.518,56.25-.749.25-.003.5.002.75,0l.004,1.483c3.102-.104,6.137,1.148,8.996,2.263,1.248,2.093.995,1.163,2.292,2.565,1.106,1.195,1.256,3.052,2.958,2.679,1.673,3.55.957,3.556,1.5,5.994.617,2.769,2.22,2.976,1.322,7.695-2.833,14.876-17.114,17.809-30.181,16.295-1.644-.108-1.988,1.707-2.64,2.231-9.281,7.459-18.345,15.153-27.75,22.476-.276.215-1.462.122-1.88.712l-12.37,11.275c-4.78,3.676-9.473,7.521-14.25,11.238-2.921,2.273-6.045,4.619-9.036,7.095-1.887,1.562-1.56-.018-2.964,2.645-1.272.456-2.307.093-2.25,2.248-3.159,2.335-6.011,4.969-9,7.492-1.363.085-2.321.701-3.376,1.493-3.816,2.864-7.59,6.99-10.874,9.745-4.987,4.183-13.533,11.927-18.75,14.984-.284.167-1.422-.469-1.54.442l.04,39.265h-58.5c-.852-11.958,1.122-25.396.054-37.173-.133-1.465-.593-1.768-.804-2.534-.355-1.29.034-1.567-1.068-3.036-1.664-2.217-9.574-7.961-12.432-10.45-13.368-11.64-27.368-22.184-41.25-32.964-7.028-5.457-13.947-11.049-21-16.482-1.069-.581-1.046-2.033-1.73-2.771-3.947-4.257-14.534-11.866-19.663-15.941-2.699-2.144-5.975-5.448-9.357-6.012-1.75-1.688-1.053-1.738-3.75-2.997-1.385-5.225-11.444-2.536-16.116-3.005-14.415-1.447-21.801-18.027-13.461-29.911,1.848-2.634,5.26-3.858,6.327-6.79,1.038-.34,3.789-1.416,4.5-1.498,19.896-2.297,48.141.049,69,0v-.002ZM422.943,39.966l-169.122-.753c-.713,1.413,1.803,1.555,2.622,1.502.275,1.277.792,1.709,1.699,2.502,9.426,8.252,22.628,18.595,32.801,25.967,1.167,2.244,2.463,2.801,4.5,3.746,1.376,2.56,5.42,4.749,8.25,6.743,2.072,1.46,6.742,6.606,8.612,4.5l.377-19.875c.403-2.219,1.967-1.547,2.26-1.857h55.5v26.222c2.852,1.006,4.085-.503,6.339-2.231,1.151-.882-.757-.937-1.089-1.515,18.164-11.371,34.456-29.592,52.509-41.571l2.634-2.631c-1.088-3.355-5.611-2.418-7.893-.749h0Z"/>
  <path id="side_1" data-name="side 1" class="cls-1" d="M614.254,391.477c1.041-13.228-.771-27.722-.013-41.086,3.62-3.548,6.231-10.284,10.722-13.431,9.517-6.669,35.148-6.802,44.724-.894,5.387,3.324,12.278,11.479,12.846,17.885l-.209,284.544c-5.335,20.593-25.402,24.929-44.486,22.319-5.638-.771-14.065-5.039-17.54-9.62-2.219-2.926-3.426-6.695-6.031-8.923"/>
  <path id="side_2" data-name="side 2" class="cls-1" d="M69.752,603.836c.196,1.045-.055,2.566,0,3.746"/>
  <path id="side_2-2" data-name="side 2-2" class="cls-1" d="M69.752,632.305c-.938,14.836-8.931,25.54-24.387,26.959-18.341,1.683-37.522-1.301-42.934-21.518l-.21-283.796c.119-7.82,10.132-18.731,17.27-20.957,4.983-1.554,18.988-2.243,24.377-1.852,12.619.916,21.272,7.447,25.842,19.137l.042,43.785"/>
  <path id="yoke" class="cls-1" d="M369.002,167.807h97.125c3.174,0,11.707,5.841,13.752,8.706,11.864,16.621,7.869,45.824-14.877,49.731-.779-1.242-2.845-.747-4.114-.762-73.373-.909-146.94-.833-220.413-.751l-.473,1.513c-14.758,2.013-34.816,3.473-42.551-11.811-3.816-7.539-3.579-26.959.231-34.585,1.504-3.01,11.717-12.041,14.945-12.041h96.375"/>
  <circle id="cp1" class="cls-2" cx="35.986" cy="499.649" r="1.503"/>
  <circle id="cp2" class="cls-2" cx="648.291" cy="496.643" r="1.503"/>
</svg>