<?xml version="1.0" encoding="UTF-8"?>
<svg id="Layer_1" data-name="Layer 1" xmlns="http://www.w3.org/2000/svg" viewBox="0 0 683.25 693.75">
  <defs>
    <style>
      .cls-1 {
        fill: #949299;
      }

      .cls-2 {
        fill: none;
      }

      .cls-3 {
        fill: #15bac7;
      }

      .cls-4 {
        fill: #384551;
      }
    </style>
  </defs>
  <path id="valve_body" data-name="valve body" class="cls-4" d="M282.337,610.802c.05,0,.096-.029.117-.075l2.308-5.056c.012.003.024-.005.024-.018l.18-124.649c0-.015.004-.029.012-.042,7.741-11.879,17.812-23.584,28.266-33.172,4.473-4.102,17.262-15.364,22.861-15.364h114.186c.038,0,.07.031.076.068l1.131-.128,1.476-.048c.904-74.156.392-199.418.394-197.386,0,.466-.304-.878-.749-1.017-.453-.142-1.622.197-1.884.593l-1.429.19c-.017.026-1.714.667-1.714.667l-5.077-.216s-72.874,1.59-108.593-.021c-.012,0-.024-.004-.034-.01-19.873-11.086-37.082-29.101-49.058-48.334-.007-.012-.011-.026-.012-.04l-.784-123.293c0-.017-.006-.033-.016-.046l-1.787-2.262c-.014-.018-.036-.029-.059-.029l-204.576.01-.958,128.813c-19.319,24.66-42.149,46.968-55.057,76.044-20.028,45.116-19.005,98.913,4.088,142.902,12.614,24.027,32.533,43.801,48.853,65.39l-1.005,135.145,3.303,1.559c.01.005.021.007.032.007l205.483-.182h.002Z"/>
  <path id="handle" class="cls-3" d="M676.347,244.544c.149,63.987-.026,128.012,0,192,.008,18.836.518,37.665.749,56.25.003.25-.002.5,0,.75l-1.483.004c.104,3.102-1.148,6.137-2.263,8.996-2.093,1.248-1.163.995-2.565,2.292-1.195,1.106-3.052,1.256-2.679,2.958-3.55,1.673-3.556.957-5.994,1.5-2.769.617-2.976,2.22-7.695,1.322-14.876-2.833-17.809-17.114-16.295-30.181.108-1.644-1.707-1.988-2.231-2.64-7.459-9.281-15.153-18.345-22.476-27.75-.215-.276-.122-1.462-.712-1.88l-11.275-12.37c-3.676-4.78-7.521-9.473-11.238-14.25-2.273-2.921-4.619-6.045-7.095-9.036-1.562-1.887.018-1.56-2.645-2.964-.456-1.272-.093-2.307-2.248-2.25-2.335-3.159-4.969-6.011-7.492-9-.085-1.363-.701-2.321-1.493-3.376-2.864-3.816-6.99-7.59-9.745-10.874-4.183-4.987-11.927-13.533-14.984-18.75-.167-.284.469-1.422-.442-1.54l-39.265.04v-58.5c11.958-.852,25.396,1.122,37.173.054,1.465-.133,1.768-.593,2.534-.804,1.29-.355,1.567.034,3.036-1.068,2.217-1.664,7.961-9.574,10.45-12.432,11.64-13.368,22.184-27.368,32.964-41.25,5.457-7.028,11.049-13.947,16.482-21,.581-1.069,2.033-1.046,2.771-1.73,4.257-3.947,11.866-14.534,15.941-19.663,2.144-2.699,5.448-5.975,6.012-9.357,1.688-1.75,1.738-1.053,2.997-3.75,5.225-1.385,2.536-11.444,3.005-16.116,1.447-14.415,18.027-21.801,29.911-13.461,2.634,1.848,3.858,5.26,6.79,6.327.34,1.038,1.416,3.789,1.498,4.5,2.297,19.896-.049,48.141,0,69h.002ZM637.389,415.544l.753-169.122c-1.413-.713-1.555,1.803-1.502,2.622-1.277.275-1.709.792-2.502,1.699-8.252,9.426-18.595,22.628-25.967,32.801-2.244,1.167-2.801,2.463-3.746,4.5-2.56,1.376-4.749,5.42-6.743,8.25-1.46,2.072-6.606,6.742-4.5,8.612l19.875.377c2.219.403,1.547,1.967,1.857,2.26v55.5h-26.222c-1.006,2.852.503,4.085,2.231,6.339.882,1.151.937-.757,1.515-1.089,11.371,18.164,29.592,34.456,41.571,52.509l2.631,2.634c3.355-1.088,2.418-5.611.749-7.893h0Z"/>
  <path id="side_1" data-name="side 1" class="cls-1" d="M285.878,606.855c13.228,1.041,27.722-.771,41.086-.013,3.548,3.62,10.284,6.231,13.431,10.722,6.669,9.517,6.802,35.148.894,44.724-3.324,5.387-11.479,12.278-17.885,12.846l-284.544-.209c-20.593-5.335-24.929-25.402-22.319-44.486.771-5.638,5.039-14.065,9.62-17.54,2.926-2.219,6.695-3.426,8.923-6.031"/>
  <path id="side_2" data-name="side 2" class="cls-1" d="M73.519,62.353c-1.045.196-2.566-.055-3.746,0"/>
  <path id="side_2-2" data-name="side 2-2" class="cls-1" d="M45.05,62.353c-14.836-.938-25.54-8.931-26.959-24.387C16.408,19.625,19.392.444,39.609-4.968l283.796-.21c7.82.119,18.731,10.132,20.957,17.27,1.554,4.983,2.243,18.988,1.852,24.377-.916,12.619-7.447,21.272-19.137,25.842l-43.785.042"/>
  <path id="yoke" class="cls-1" d="M509.548,361.603v97.125c0,3.174-5.841,11.707-8.706,13.752-16.621,11.864-45.824,7.869-49.731-14.877,1.242-.779.747-2.845.762-4.114.909-73.373.833-146.94.751-220.413l-1.513-.473c-2.013-14.758-3.473-34.816,11.811-42.551,7.539-3.816,26.959-3.579,34.585.231,3.01,1.504,12.041,11.717,12.041,14.945v96.375"/>
  <circle id="cp1" class="cls-2" cx="177.706" cy="28.588" r="1.503"/>
  <circle id="cp2" class="cls-2" cx="180.712" cy="640.893" r="1.503"/>
</svg>